solid OpenSCAD_Model
  facet normal -1 0 0
    outer loop
      vertex 0 -2 2
      vertex 0 -15 20
      vertex 0 -2 20
    endloop
  endfacet
  facet normal -1 0 0
    outer loop
      vertex 0 -15 20
      vertex 0 -23.5734 22.5365
      vertex 0 -15 30
    endloop
  endfacet
  facet normal -1 0 0
    outer loop
      vertex 0 -25 21.5
      vertex 0 -15 20
      vertex 0 -2 2
    endloop
  endfacet
  facet normal -1 0 0
    outer loop
      vertex 0 -15 20
      vertex 0 -25 21.5
      vertex 0 -23.5734 22.5365
    endloop
  endfacet
  facet normal -1 0 0
    outer loop
      vertex 0 -75 2
      vertex 0 -25 21.5
      vertex 0 -2 2
    endloop
  endfacet
  facet normal -1 -0 0
    outer loop
      vertex 0 -25 21.5
      vertex 0 -75 2
      vertex 0 -26.4266 22.5365
    endloop
  endfacet
  facet normal -1 -0 0
    outer loop
      vertex 0 -26.4266 22.5365
      vertex 0 -75 2
      vertex 0 -73.5734 22.5365
    endloop
  endfacet
  facet normal -1 0 0
    outer loop
      vertex 0 -75 20
      vertex 0 -73.5734 22.5365
      vertex 0 -75 2
    endloop
  endfacet
  facet normal -1 0 0
    outer loop
      vertex 0 -75 20
      vertex 0 -75 21.5
      vertex 0 -73.5734 22.5365
    endloop
  endfacet
  facet normal -1 0 0
    outer loop
      vertex 0 -75 20
      vertex 0 -76.4266 22.5365
      vertex 0 -75 21.5
    endloop
  endfacet
  facet normal -1 0 0
    outer loop
      vertex 0 -75 20
      vertex 0 -123.573 22.5365
      vertex 0 -76.4266 22.5365
    endloop
  endfacet
  facet normal -1 0 0
    outer loop
      vertex 0 -75 20
      vertex 0 -125 21.5
      vertex 0 -123.573 22.5365
    endloop
  endfacet
  facet normal -1 -0 0
    outer loop
      vertex 0 -125 21.5
      vertex 0 -135 20
      vertex 0 -126.427 22.5365
    endloop
  endfacet
  facet normal -1 0 0
    outer loop
      vertex 0 -135 20
      vertex 0 -125 21.5
      vertex 0 -75 20
    endloop
  endfacet
  facet normal -1 0 0
    outer loop
      vertex 0 -24.1183 24.2135
      vertex 0 -15 30
      vertex 0 -23.5734 22.5365
    endloop
  endfacet
  facet normal -1 0 0
    outer loop
      vertex 0 -25.8817 24.2135
      vertex 0 -15 30
      vertex 0 -24.1183 24.2135
    endloop
  endfacet
  facet normal -1 0 0
    outer loop
      vertex 0 -73.5734 22.5365
      vertex 0 -25.8817 24.2135
      vertex 0 -26.4266 22.5365
    endloop
  endfacet
  facet normal -1 0 0
    outer loop
      vertex 0 -74.1183 24.2135
      vertex 0 -25.8817 24.2135
      vertex 0 -73.5734 22.5365
    endloop
  endfacet
  facet normal -1 0 0
    outer loop
      vertex 0 -25.8817 24.2135
      vertex 0 -74.1183 24.2135
      vertex 0 -15 30
    endloop
  endfacet
  facet normal -1 0 0
    outer loop
      vertex 0 -75.8817 24.2135
      vertex 0 -15 30
      vertex 0 -74.1183 24.2135
    endloop
  endfacet
  facet normal -1 0 0
    outer loop
      vertex 0 -123.573 22.5365
      vertex 0 -75.8817 24.2135
      vertex 0 -76.4266 22.5365
    endloop
  endfacet
  facet normal -1 0 0
    outer loop
      vertex 0 -124.118 24.2135
      vertex 0 -75.8817 24.2135
      vertex 0 -123.573 22.5365
    endloop
  endfacet
  facet normal -1 0 0
    outer loop
      vertex 0 -135 30
      vertex 0 -75.8817 24.2135
      vertex 0 -124.118 24.2135
    endloop
  endfacet
  facet normal -1 0 0
    outer loop
      vertex 0 -135 30
      vertex 0 -124.118 24.2135
      vertex 0 -125.882 24.2135
    endloop
  endfacet
  facet normal -1 0 0
    outer loop
      vertex 0 -135 30
      vertex 0 -126.427 22.5365
      vertex 0 -135 20
    endloop
  endfacet
  facet normal -1 0 0
    outer loop
      vertex 0 -75.8817 24.2135
      vertex 0 -135 30
      vertex 0 -15 30
    endloop
  endfacet
  facet normal -1 0 0
    outer loop
      vertex 0 -126.427 22.5365
      vertex 0 -135 30
      vertex 0 -125.882 24.2135
    endloop
  endfacet
  facet normal 0 -1 0
    outer loop
      vertex 3 -2 3
      vertex 20 -2 20
      vertex 3 -2 20
    endloop
  endfacet
  facet normal 0 -1 -0
    outer loop
      vertex 20 -2 20
      vertex 3 -2 3
      vertex 20 -2 3
    endloop
  endfacet
  facet normal 0 0 0
    outer loop
      vertex 20 -2 20
      vertex 21 -2 20
      vertex 2 -2 20
    endloop
  endfacet
  facet normal 0 0 0
    outer loop
      vertex 2 -2 20
      vertex 3 -2 20
      vertex 20 -2 20
    endloop
  endfacet
  facet normal 0 1 -2.22045e-16
    outer loop
      vertex 21 4.44089e-16 2
      vertex 2 4.44089e-15 20
      vertex 21 4.44089e-15 20
    endloop
  endfacet
  facet normal 0 1 -2.22045e-16
    outer loop
      vertex 2 4.44089e-15 20
      vertex 21 4.44089e-16 2
      vertex 2 4.44089e-16 2
    endloop
  endfacet
  facet normal 0 -2.22045e-16 -1
    outer loop
      vertex 2 -75 1.66533e-14
      vertex 21 -2 4.44089e-16
      vertex 21 -75 1.66533e-14
    endloop
  endfacet
  facet normal -0 -2.22045e-16 -1
    outer loop
      vertex 21 -2 4.44089e-16
      vertex 2 -75 1.66533e-14
      vertex 2 -2 4.44089e-16
    endloop
  endfacet
  facet normal 0 0 1
    outer loop
      vertex 21 -2 20
      vertex 22.8019 -1.13223 20
      vertex 21.445 -0.0501442 20
    endloop
  endfacet
  facet normal -0 0 1
    outer loop
      vertex 22.8019 -2 20
      vertex 23 -75 20
      vertex 23 -2 20
    endloop
  endfacet
  facet normal 0 0 1
    outer loop
      vertex 22.8019 -1.13223 20
      vertex 21 -2 20
      vertex 22.8019 -2 20
    endloop
  endfacet
  facet normal 0 0 1
    outer loop
      vertex 21 -2 20
      vertex 21.445 -0.0501442 20
      vertex 21 -0.151722 20
    endloop
  endfacet
  facet normal 0 0 1
    outer loop
      vertex 22.8019 -2 20
      vertex 21 -2 20
      vertex 23 -75 20
    endloop
  endfacet
  facet normal 0 0 1
    outer loop
      vertex 23 -75 20
      vertex 21 -2 20
      vertex 21 -75 20
    endloop
  endfacet
  facet normal 0 0 1
    outer loop
      vertex 2 -0.151722 20
      vertex 21 -0.151722 20
      vertex 21 4.44089e-15 20
    endloop
  endfacet
  facet normal 0 0 1
    outer loop
      vertex 2 -0.151722 20
      vertex 21 4.44089e-15 20
      vertex 2 4.44089e-15 20
    endloop
  endfacet
  facet normal 0 0 1
    outer loop
      vertex 21 -0.151722 20
      vertex 2 -0.151722 20
      vertex 21 -2 20
    endloop
  endfacet
  facet normal 0 0 1
    outer loop
      vertex 2 -0.151722 20
      vertex 2 -2 20
      vertex 21 -2 20
    endloop
  endfacet
  facet normal 0 0 1
    outer loop
      vertex 1.55496 -0.0501442 20
      vertex 2 -2 20
      vertex 2 -0.151722 20
    endloop
  endfacet
  facet normal 0 0 1
    outer loop
      vertex 2 -2 20
      vertex 1.55496 -0.0501442 20
      vertex 0.198063 -1.13223 20
    endloop
  endfacet
  facet normal 0 0 1
    outer loop
      vertex 2 -2 20
      vertex 0.198063 -1.13223 20
      vertex 0.198063 -2 20
    endloop
  endfacet
  facet normal 0 0 1
    outer loop
      vertex 2 -2 20
      vertex 0.198063 -2 20
      vertex 2 -15 20
    endloop
  endfacet
  facet normal 0 0 1
    outer loop
      vertex 0 -15 20
      vertex 0.198063 -2 20
      vertex 0 -2 20
    endloop
  endfacet
  facet normal 0 0 1
    outer loop
      vertex 0.198063 -2 20
      vertex 0 -15 20
      vertex 2 -15 20
    endloop
  endfacet
  facet normal 0 -1 0
    outer loop
      vertex 21.9424 -75 0.29165
      vertex 21 -75 2
      vertex 15.7475 -75 2
    endloop
  endfacet
  facet normal -0 -1 0
    outer loop
      vertex 22.9499 -75 1.55496
      vertex 21 -75 2
      vertex 21.9424 -75 0.29165
    endloop
  endfacet
  facet normal 0 -1 0
    outer loop
      vertex 21 -75 2
      vertex 22.9499 -75 1.55496
      vertex 22.8483 -75 2
    endloop
  endfacet
  facet normal 0 -1 0
    outer loop
      vertex 21 -75 2
      vertex 23 -75 20
      vertex 21 -75 20
    endloop
  endfacet
  facet normal 0 -1 0
    outer loop
      vertex 22.8483 -75 2
      vertex 23 -75 20
      vertex 21 -75 2
    endloop
  endfacet
  facet normal 0 -1 -0
    outer loop
      vertex 23 -75 20
      vertex 22.8483 -75 2
      vertex 23 -75 2
    endloop
  endfacet
  facet normal 0 -1 0
    outer loop
      vertex 0 -75 20
      vertex 9.18485e-15 -75 6.34262
      vertex 2 -75 20
    endloop
  endfacet
  facet normal 0 -1 0
    outer loop
      vertex 0 -75 2
      vertex 9.18485e-15 -75 6.34262
      vertex 0 -75 20
    endloop
  endfacet
  facet normal 0 -1 -0
    outer loop
      vertex 9.18485e-15 -75 6.34262
      vertex 0 -75 2
      vertex 9.18485e-15 -75 2
    endloop
  endfacet
  facet normal 0 -1 -0
    outer loop
      vertex 2 -75 20
      vertex 9.18485e-15 -75 6.34262
      vertex 2 -75 5.79108
    endloop
  endfacet
  facet normal 0 0 0
    outer loop
      vertex 9.18485e-15 -75 2
      vertex 0 -75 2
      vertex 0.151722 -75 2
    endloop
  endfacet
  facet normal 0 0 1
    outer loop
      vertex 3 -2.14935 2
      vertex 20 -2.14935 2
      vertex 20 -2 2
    endloop
  endfacet
  facet normal 0 0 1
    outer loop
      vertex 20 -2.14935 2
      vertex 3 -3 2
      vertex 20 -3 2
    endloop
  endfacet
  facet normal 0 0 1
    outer loop
      vertex 3 -2.14935 2
      vertex 20 -2 2
      vertex 3 -2 2
    endloop
  endfacet
  facet normal 0 0 1
    outer loop
      vertex 20 -2.14935 2
      vertex 3 -2.14935 2
      vertex 3 -3 2
    endloop
  endfacet
  facet normal 0 0 1
    outer loop
      vertex 20 -3 2
      vertex 3 -3 2
      vertex 15.7475 -75 2
    endloop
  endfacet
  facet normal 0 0 1
    outer loop
      vertex 2.19098 -3 2
      vertex 3 -3 2
      vertex 2.35796 -2.35796 2
    endloop
  endfacet
  facet normal 0 0 1
    outer loop
      vertex 2.19098 -3 2
      vertex 2.35796 -2.35796 2
      vertex 2.19098 -2.41222 2
    endloop
  endfacet
  facet normal 0 0 1
    outer loop
      vertex 2 -75 2
      vertex 3 -3 2
      vertex 2.19098 -3 2
    endloop
  endfacet
  facet normal 0 0 1
    outer loop
      vertex 2 -75 2
      vertex 2.19098 -3 2
      vertex 2 -3 2
    endloop
  endfacet
  facet normal 0 0 1
    outer loop
      vertex 3 -3 2
      vertex 2 -75 2
      vertex 15.7475 -75 2
    endloop
  endfacet
  facet normal 0 0 1
    outer loop
      vertex 20.809 -2.41222 2
      vertex 20.642 -2.35796 2
      vertex 20.809 -3 2
    endloop
  endfacet
  facet normal -0 0 1
    outer loop
      vertex 20.809 -3 2
      vertex 21 -75 2
      vertex 21 -3 2
    endloop
  endfacet
  facet normal 0 0 1
    outer loop
      vertex 20 -3 2
      vertex 20.809 -3 2
      vertex 20.642 -2.35796 2
    endloop
  endfacet
  facet normal 0 0 1
    outer loop
      vertex 20.809 -3 2
      vertex 20 -3 2
      vertex 21 -75 2
    endloop
  endfacet
  facet normal 0 0 1
    outer loop
      vertex 21 -75 2
      vertex 20 -3 2
      vertex 15.7475 -75 2
    endloop
  endfacet
  facet normal 0 0 0
    outer loop
      vertex 2 -2 2
      vertex 2 -75 2
      vertex 2 -3 2
    endloop
  endfacet
  facet normal 0 0 0
    outer loop
      vertex 21 -75 2
      vertex 21 -2 2
      vertex 21 -3 2
    endloop
  endfacet
  facet normal 0 0 0
    outer loop
      vertex 2 -3 2
      vertex 2 -75 2
      vertex 2 -2 2
    endloop
  endfacet
  facet normal 1 0 0
    outer loop
      vertex 2 -76.4266 22.5365
      vertex 2 -75 20
      vertex 2 -75 21.5
    endloop
  endfacet
  facet normal 1 -0 0
    outer loop
      vertex 2 -123.573 22.5365
      vertex 2 -75 20
      vertex 2 -76.4266 22.5365
    endloop
  endfacet
  facet normal 1 -0 0
    outer loop
      vertex 2 -125 21.5
      vertex 2 -75 20
      vertex 2 -123.573 22.5365
    endloop
  endfacet
  facet normal 1 0 0
    outer loop
      vertex 2 -125 21.5
      vertex 2 -135 20
      vertex 2 -75 20
    endloop
  endfacet
  facet normal 1 0 0
    outer loop
      vertex 2 -126.427 22.5365
      vertex 2 -135 20
      vertex 2 -125 21.5
    endloop
  endfacet
  facet normal 1 0 0
    outer loop
      vertex 2 -135 20
      vertex 2 -126.427 22.5365
      vertex 2 -135 30
    endloop
  endfacet
  facet normal 1 0 0
    outer loop
      vertex 2 -15 30
      vertex 2 -23.5734 22.5365
      vertex 2 -15 20
    endloop
  endfacet
  facet normal 1 0 0
    outer loop
      vertex 2 -15 30
      vertex 2 -24.1183 24.2135
      vertex 2 -23.5734 22.5365
    endloop
  endfacet
  facet normal 1 0 0
    outer loop
      vertex 2 -15 30
      vertex 2 -25.8817 24.2135
      vertex 2 -24.1183 24.2135
    endloop
  endfacet
  facet normal 1 0 0
    outer loop
      vertex 2 -25.8817 24.2135
      vertex 2 -73.5734 22.5365
      vertex 2 -26.4266 22.5365
    endloop
  endfacet
  facet normal 1 0 0
    outer loop
      vertex 2 -74.1183 24.2135
      vertex 2 -25.8817 24.2135
      vertex 2 -15 30
    endloop
  endfacet
  facet normal 1 0 0
    outer loop
      vertex 2 -25.8817 24.2135
      vertex 2 -74.1183 24.2135
      vertex 2 -73.5734 22.5365
    endloop
  endfacet
  facet normal 1 0 0
    outer loop
      vertex 2 -15 30
      vertex 2 -75.8817 24.2135
      vertex 2 -74.1183 24.2135
    endloop
  endfacet
  facet normal 1 0 0
    outer loop
      vertex 2 -75.8817 24.2135
      vertex 2 -123.573 22.5365
      vertex 2 -76.4266 22.5365
    endloop
  endfacet
  facet normal 1 -0 0
    outer loop
      vertex 2 -135 30
      vertex 2 -75.8817 24.2135
      vertex 2 -15 30
    endloop
  endfacet
  facet normal 1 0 0
    outer loop
      vertex 2 -75.8817 24.2135
      vertex 2 -124.118 24.2135
      vertex 2 -123.573 22.5365
    endloop
  endfacet
  facet normal 1 0 0
    outer loop
      vertex 2 -75.8817 24.2135
      vertex 2 -135 30
      vertex 2 -124.118 24.2135
    endloop
  endfacet
  facet normal 1 0 0
    outer loop
      vertex 2 -125.882 24.2135
      vertex 2 -135 30
      vertex 2 -126.427 22.5365
    endloop
  endfacet
  facet normal 1 0 0
    outer loop
      vertex 2 -124.118 24.2135
      vertex 2 -135 30
      vertex 2 -125.882 24.2135
    endloop
  endfacet
  facet normal 1 0 0
    outer loop
      vertex 2 -2 20
      vertex 2 -2.19098 3
      vertex 2 -2 3
    endloop
  endfacet
  facet normal 1 0 0
    outer loop
      vertex 2 -2.19098 3
      vertex 2 -3 2.14935
      vertex 2 -2.19098 2.41222
    endloop
  endfacet
  facet normal 1 -0 0
    outer loop
      vertex 2 -15 20
      vertex 2 -2.19098 3
      vertex 2 -2 20
    endloop
  endfacet
  facet normal 1 0 0
    outer loop
      vertex 2 -2.19098 3
      vertex 2 -15 20
      vertex 2 -3 2.14935
    endloop
  endfacet
  facet normal 1 0 0
    outer loop
      vertex 2 -15 20
      vertex 2 -3 2
      vertex 2 -3 2.14935
    endloop
  endfacet
  facet normal 1 -0 0
    outer loop
      vertex 2 -25 21.5
      vertex 2 -15 20
      vertex 2 -23.5734 22.5365
    endloop
  endfacet
  facet normal 1 0 0
    outer loop
      vertex 2 -15 20
      vertex 2 -25 21.5
      vertex 2 -3 2
    endloop
  endfacet
  facet normal 1 0 0
    outer loop
      vertex 2 -75 2
      vertex 2 -25 21.5
      vertex 2 -26.4266 22.5365
    endloop
  endfacet
  facet normal 1 0 0
    outer loop
      vertex 2 -75 5.79108
      vertex 2 -26.4266 22.5365
      vertex 2 -73.5734 22.5365
    endloop
  endfacet
  facet normal 1 0 0
    outer loop
      vertex 2 -75 20
      vertex 2 -73.5734 22.5365
      vertex 2 -75 21.5
    endloop
  endfacet
  facet normal 1 0 0
    outer loop
      vertex 2 -75 5.79108
      vertex 2 -73.5734 22.5365
      vertex 2 -75 20
    endloop
  endfacet
  facet normal 1 0 0
    outer loop
      vertex 2 -75 2
      vertex 2 -26.4266 22.5365
      vertex 2 -75 5.79108
    endloop
  endfacet
  facet normal 1 0 0
    outer loop
      vertex 2 -25 21.5
      vertex 2 -75 2
      vertex 2 -3 2
    endloop
  endfacet
  facet normal 0 0 -1
    outer loop
      vertex 0 -75 2
      vertex 0.151722 -2 2
      vertex 0.151722 -75 2
    endloop
  endfacet
  facet normal -0 0 -1
    outer loop
      vertex 0.151722 -2 2
      vertex 0 -75 2
      vertex 0 -2 2
    endloop
  endfacet
  facet normal -1 0 0
    outer loop
      vertex 2 -2 4.44089e-16
      vertex 2 -75 1.66533e-14
      vertex 2 -2 0.151722
    endloop
  endfacet
  facet normal -1 0 0
    outer loop
      vertex 2 -2 0.151722
      vertex 2 -1.36947 0.198063
      vertex 2 -1.55496 0.0501442
    endloop
  endfacet
  facet normal -1 0 0
    outer loop
      vertex 2 -75 0.198063
      vertex 2 -2 0.151722
      vertex 2 -75 1.66533e-14
    endloop
  endfacet
  facet normal -1 0 0
    outer loop
      vertex 2 -2 0.151722
      vertex 2 -75 0.198063
      vertex 2 -1.36947 0.198063
    endloop
  endfacet
  facet normal 0 0 -1
    outer loop
      vertex 1.13223 -75 0.198063
      vertex 2 -1.36947 0.198063
      vertex 2 -75 0.198063
    endloop
  endfacet
  facet normal -0 0 -1
    outer loop
      vertex 2 -1.36947 0.198063
      vertex 1.13223 -75 0.198063
      vertex 1.13223 -1.36947 0.198063
    endloop
  endfacet
  facet normal -0.974928 0 0.222521
    outer loop
      vertex 0.0501442 -75 1.55496
      vertex 0.151722 -2 2
      vertex 0.0501442 -2 1.55496
    endloop
  endfacet
  facet normal -0.974928 0 0.222521
    outer loop
      vertex 0.151722 -2 2
      vertex 0.0501442 -75 1.55496
      vertex 0.151722 -75 2
    endloop
  endfacet
  facet normal -0.781831 6.68942e-09 -0.62349
    outer loop
      vertex 1.13223 -1.36947 0.198063
      vertex 0.198063 -1.13223 1.36947
      vertex 0.717776 -0.717776 0.717776
    endloop
  endfacet
  facet normal -0.781831 0 -0.62349
    outer loop
      vertex 1.13223 -1.36947 0.198063
      vertex 0.198063 -2 1.36947
      vertex 0.198063 -1.13223 1.36947
    endloop
  endfacet
  facet normal -0.781831 0 -0.62349
    outer loop
      vertex 1.13223 -75 0.198063
      vertex 0.198063 -2 1.36947
      vertex 1.13223 -1.36947 0.198063
    endloop
  endfacet
  facet normal -0.781831 4.60243e-10 -0.62349
    outer loop
      vertex 0.0501442 -75 1.55496
      vertex 0.198063 -2 1.36947
      vertex 1.13223 -75 0.198063
    endloop
  endfacet
  facet normal -0.781831 0 -0.62349
    outer loop
      vertex 0.198063 -2 1.36947
      vertex 0.0501442 -75 1.55496
      vertex 0.0501442 -2 1.55496
    endloop
  endfacet
  facet normal 0 1 -0
    outer loop
      vertex 21 -2 4.44089e-16
      vertex 2 -2 0.151722
      vertex 21 -2 0.151722
    endloop
  endfacet
  facet normal 0 1 0
    outer loop
      vertex 2 -2 0.151722
      vertex 21 -2 4.44089e-16
      vertex 2 -2 4.44089e-16
    endloop
  endfacet
  facet normal 0 0 -1
    outer loop
      vertex 21.6305 -0.198063 2
      vertex 21 -0.151722 2
      vertex 21.445 -0.0501442 2
    endloop
  endfacet
  facet normal 0 0 -1
    outer loop
      vertex 21 -0.151722 2
      vertex 2 -0.151722 2
      vertex 21 4.44089e-16 2
    endloop
  endfacet
  facet normal 0 0 -1
    outer loop
      vertex 21.6305 -0.198063 2
      vertex 2 -0.151722 2
      vertex 21 -0.151722 2
    endloop
  endfacet
  facet normal -0 0 -1
    outer loop
      vertex 2 -0.151722 2
      vertex 1.36947 -0.198063 2
      vertex 1.55496 -0.0501442 2
    endloop
  endfacet
  facet normal 0 0 -1
    outer loop
      vertex 1.36947 -0.198063 2
      vertex 2 -0.151722 2
      vertex 21.6305 -0.198063 2
    endloop
  endfacet
  facet normal -0 0 -1
    outer loop
      vertex 21 4.44089e-16 2
      vertex 2 -0.151722 2
      vertex 2 4.44089e-16 2
    endloop
  endfacet
  facet normal 0 1 -0
    outer loop
      vertex 21.6305 -0.198063 1.13223
      vertex 1.36947 -0.198063 2
      vertex 21.6305 -0.198063 2
    endloop
  endfacet
  facet normal 0 1 0
    outer loop
      vertex 1.36947 -0.198063 2
      vertex 21.6305 -0.198063 1.13223
      vertex 1.36947 -0.198063 1.13223
    endloop
  endfacet
  facet normal 0 -0.222521 -0.974928
    outer loop
      vertex 2 -2 0.151722
      vertex 21 -1.55496 0.0501442
      vertex 21 -2 0.151722
    endloop
  endfacet
  facet normal -0 -0.222521 -0.974928
    outer loop
      vertex 21 -1.55496 0.0501442
      vertex 2 -2 0.151722
      vertex 2 -1.55496 0.0501442
    endloop
  endfacet
  facet normal 0 0.62349 -0.781831
    outer loop
      vertex 21 -1.55496 0.0501442
      vertex 2 -1.55496 0.0501442
      vertex 21 -1.36947 0.198063
    endloop
  endfacet
  facet normal 6.68942e-09 0.62349 -0.781831
    outer loop
      vertex 21.8678 -1.36947 0.198063
      vertex 21.6305 -0.198063 1.13223
      vertex 22.2822 -0.717776 0.717776
    endloop
  endfacet
  facet normal 0 0.62349 -0.781831
    outer loop
      vertex 21 -1.36947 0.198063
      vertex 21.6305 -0.198063 1.13223
      vertex 21.8678 -1.36947 0.198063
    endloop
  endfacet
  facet normal 0 0.62349 -0.781831
    outer loop
      vertex 2 -1.36947 0.198063
      vertex 21 -1.36947 0.198063
      vertex 2 -1.55496 0.0501442
    endloop
  endfacet
  facet normal 0 0.62349 -0.781831
    outer loop
      vertex 21 -1.36947 0.198063
      vertex 2 -1.36947 0.198063
      vertex 21.6305 -0.198063 1.13223
    endloop
  endfacet
  facet normal 0 0.62349 -0.781831
    outer loop
      vertex 2 -1.36947 0.198063
      vertex 1.36947 -0.198063 1.13223
      vertex 21.6305 -0.198063 1.13223
    endloop
  endfacet
  facet normal 0 0.62349 -0.781831
    outer loop
      vertex 1.13223 -1.36947 0.198063
      vertex 1.36947 -0.198063 1.13223
      vertex 2 -1.36947 0.198063
    endloop
  endfacet
  facet normal -6.68942e-09 0.62349 -0.781831
    outer loop
      vertex 1.36947 -0.198063 1.13223
      vertex 1.13223 -1.36947 0.198063
      vertex 0.717776 -0.717776 0.717776
    endloop
  endfacet
  facet normal -1 0 0
    outer loop
      vertex 2 -0.151722 2
      vertex 2 4.44089e-15 20
      vertex 2 4.44089e-16 2
    endloop
  endfacet
  facet normal -1 -0 0
    outer loop
      vertex 2 4.44089e-15 20
      vertex 2 -0.151722 2
      vertex 2 -0.151722 20
    endloop
  endfacet
  facet normal 0 1 0
    outer loop
      vertex 0.198063 -2 20
      vertex 0.151722 -2 2
      vertex 0 -2 20
    endloop
  endfacet
  facet normal 0 1 0
    outer loop
      vertex 0.151722 -2 2
      vertex 0.198063 -2 1.36947
      vertex 0.0501442 -2 1.55496
    endloop
  endfacet
  facet normal 0 1 -0
    outer loop
      vertex 0.198063 -2 1.36947
      vertex 0.151722 -2 2
      vertex 0.198063 -2 20
    endloop
  endfacet
  facet normal 0 1 0
    outer loop
      vertex 0 -2 20
      vertex 0.151722 -2 2
      vertex 0 -2 2
    endloop
  endfacet
  facet normal -1 0 0
    outer loop
      vertex 0.198063 -2 1.36947
      vertex 0.198063 -1.13223 20
      vertex 0.198063 -1.13223 1.36947
    endloop
  endfacet
  facet normal -1 -0 0
    outer loop
      vertex 0.198063 -1.13223 20
      vertex 0.198063 -2 1.36947
      vertex 0.198063 -2 20
    endloop
  endfacet
  facet normal 0.222521 0.974928 -0
    outer loop
      vertex 2 -0.151722 2
      vertex 1.55496 -0.0501442 20
      vertex 2 -0.151722 20
    endloop
  endfacet
  facet normal 0.222521 0.974928 0
    outer loop
      vertex 1.55496 -0.0501442 20
      vertex 2 -0.151722 2
      vertex 1.55496 -0.0501442 2
    endloop
  endfacet
  facet normal -0.62349 0.781831 0
    outer loop
      vertex 1.36947 -0.198063 2
      vertex 1.55496 -0.0501442 20
      vertex 1.55496 -0.0501442 2
    endloop
  endfacet
  facet normal -0.62349 0.781831 -1.86654e-09
    outer loop
      vertex 1.55496 -0.0501442 20
      vertex 1.36947 -0.198063 2
      vertex 0.198063 -1.13223 20
    endloop
  endfacet
  facet normal -0.62349 0.781831 0
    outer loop
      vertex 1.36947 -0.198063 2
      vertex 0.198063 -1.13223 1.36947
      vertex 0.198063 -1.13223 20
    endloop
  endfacet
  facet normal -0.62349 0.781831 0
    outer loop
      vertex 1.36947 -0.198063 1.13223
      vertex 0.198063 -1.13223 1.36947
      vertex 1.36947 -0.198063 2
    endloop
  endfacet
  facet normal -0.62349 0.781831 -6.68942e-09
    outer loop
      vertex 0.198063 -1.13223 1.36947
      vertex 1.36947 -0.198063 1.13223
      vertex 0.717776 -0.717776 0.717776
    endloop
  endfacet
  facet normal 0 -1 0
    outer loop
      vertex 3 -3 2
      vertex 20 -3 2.14935
      vertex 3 -3 2.14935
    endloop
  endfacet
  facet normal 0 -1 -0
    outer loop
      vertex 20 -3 2.14935
      vertex 3 -3 2
      vertex 20 -3 2
    endloop
  endfacet
  facet normal 0 0 1
    outer loop
      vertex 20 -2 3
      vertex 3 -2 3
      vertex 20 -2.14935 3
    endloop
  endfacet
  facet normal 0 0 1
    outer loop
      vertex 3 -2.14935 3
      vertex 20 -2.14935 3
      vertex 3 -2 3
    endloop
  endfacet
  facet normal 0 0 1
    outer loop
      vertex 20 -2.14935 3
      vertex 3 -2.14935 3
      vertex 20.1281 -2.19098 3
    endloop
  endfacet
  facet normal 0 0 1
    outer loop
      vertex 20.1281 -2.19098 3
      vertex 3 -2.14935 3
      vertex 2.87186 -2.19098 3
    endloop
  endfacet
  facet normal 0 0 -1
    outer loop
      vertex 3 -3 2
      vertex 20 -2.14935 2
      vertex 20 -3 2
    endloop
  endfacet
  facet normal 0 0 -1
    outer loop
      vertex 3 -2.14935 2
      vertex 20 -2.14935 2
      vertex 3 -3 2
    endloop
  endfacet
  facet normal 0 0 -1
    outer loop
      vertex 20 -2.14935 2
      vertex 3 -2.14935 2
      vertex 20 -2 2
    endloop
  endfacet
  facet normal -0 0 -1
    outer loop
      vertex 20 -2 2
      vertex 3 -2.14935 2
      vertex 3 -2 2
    endloop
  endfacet
  facet normal 0 0 -1
    outer loop
      vertex 2.44847 -3 2
      vertex 2.19098 -3 2
      vertex 2.19098 -2.42586 2
    endloop
  endfacet
  facet normal 0 0 0
    outer loop
      vertex 2.19098 -3 2
      vertex 2.44847 -3 2
      vertex 2 -3 2
    endloop
  endfacet
  facet normal 0 -1 0
    outer loop
      vertex 2.87186 -2.19098 2.41222
      vertex 20.1281 -2.19098 3
      vertex 2.87186 -2.19098 3
    endloop
  endfacet
  facet normal 0 -1 -0
    outer loop
      vertex 20.1281 -2.19098 3
      vertex 2.87186 -2.19098 2.41222
      vertex 20.1281 -2.19098 2.41222
    endloop
  endfacet
  facet normal -3.34921e-08 -0.309018 0.951056
    outer loop
      vertex 20 -2.87186 2.19098
      vertex 20.642 -2.35796 2.35796
      vertex 20.1281 -2.19098 2.41222
    endloop
  endfacet
  facet normal 0 -0.309018 0.951056
    outer loop
      vertex 20.642 -2.35796 2.35796
      vertex 20 -2.87186 2.19098
      vertex 20.5878 -2.87186 2.19098
    endloop
  endfacet
  facet normal 0 -0.309018 0.951056
    outer loop
      vertex 20 -2.87186 2.19098
      vertex 3 -2.87186 2.19098
      vertex 20 -3 2.14935
    endloop
  endfacet
  facet normal 0 -0.309018 0.951056
    outer loop
      vertex 20.1281 -2.19098 2.41222
      vertex 3 -2.87186 2.19098
      vertex 20 -2.87186 2.19098
    endloop
  endfacet
  facet normal 0 -0.309018 0.951056
    outer loop
      vertex 2.87186 -2.19098 2.41222
      vertex 3 -2.87186 2.19098
      vertex 20.1281 -2.19098 2.41222
    endloop
  endfacet
  facet normal 3.3492e-08 -0.309018 0.951056
    outer loop
      vertex 2.35796 -2.35796 2.35796
      vertex 3 -2.87186 2.19098
      vertex 2.87186 -2.19098 2.41222
    endloop
  endfacet
  facet normal 0 -0.309018 0.951056
    outer loop
      vertex 3 -2.87186 2.19098
      vertex 2.35796 -2.35796 2.35796
      vertex 2.41222 -2.87186 2.19098
    endloop
  endfacet
  facet normal 0 -0.309018 0.951056
    outer loop
      vertex 20 -3 2.14935
      vertex 3 -2.87186 2.19098
      vertex 3 -3 2.14935
    endloop
  endfacet
  facet normal 0 0 -1
    outer loop
      vertex 3 -75 2
      vertex 2.44847 -3 2
      vertex 3 -3 2
    endloop
  endfacet
  facet normal 0 0 -1
    outer loop
      vertex 2 -75 2
      vertex 2.44847 -3 2
      vertex 3 -75 2
    endloop
  endfacet
  facet normal -0 0 -1
    outer loop
      vertex 2.44847 -3 2
      vertex 2 -75 2
      vertex 2 -3 2
    endloop
  endfacet
  facet normal 0 0 -1
    outer loop
      vertex 2.44847 -3 2
      vertex 2.35796 -2.35796 2
      vertex 3 -3 2
    endloop
  endfacet
  facet normal 0 0 -1
    outer loop
      vertex 2.19098 -2.42586 2
      vertex 2.35796 -2.35796 2
      vertex 2.44847 -3 2
    endloop
  endfacet
  facet normal 0 0 -1
    outer loop
      vertex 2.35796 -2.35796 2
      vertex 2.19098 -2.42586 2
      vertex 2.19098 -2.41222 2
    endloop
  endfacet
  facet normal -0 0 1
    outer loop
      vertex 2 -3 3
      vertex 2.14935 -75 3
      vertex 2.14935 -3 3
    endloop
  endfacet
  facet normal 0 0 1
    outer loop
      vertex 2.14935 -75 3
      vertex 2 -3 3
      vertex 2 -75 3
    endloop
  endfacet
  facet normal 0 0 0
    outer loop
      vertex 2 -3 3
      vertex 2 -2 3
      vertex 2 -75 3
    endloop
  endfacet
  facet normal 1 -0 0
    outer loop
      vertex 3 -75 2.19098
      vertex 3 -3 2.14935
      vertex 3 -2.87186 2.19098
    endloop
  endfacet
  facet normal 1 0 0
    outer loop
      vertex 3 -75 2.19098
      vertex 3 -3 2
      vertex 3 -3 2.14935
    endloop
  endfacet
  facet normal 1 0 0
    outer loop
      vertex 3 -3 2
      vertex 3 -75 2.19098
      vertex 3 -75 2
    endloop
  endfacet
  facet normal -1 0 0
    outer loop
      vertex 2 -3 2
      vertex 2 -75 2
      vertex 2 -3 2.14935
    endloop
  endfacet
  facet normal -1 0 0
    outer loop
      vertex 2 -3 2.14935
      vertex 2 -2.19098 3
      vertex 2 -2.19098 2.41222
    endloop
  endfacet
  facet normal -1 0 0
    outer loop
      vertex 2 -75 3
      vertex 2 -3 2.14935
      vertex 2 -75 2
    endloop
  endfacet
  facet normal -1 0 0
    outer loop
      vertex 2 -3 2.14935
      vertex 2 -75 3
      vertex 2 -2.19098 3
    endloop
  endfacet
  facet normal 0 0 0
    outer loop
      vertex 2 -2.19098 3
      vertex 2 -75 3
      vertex 2 -2 3
    endloop
  endfacet
  facet normal -0 0 1
    outer loop
      vertex 2.41222 -2.87186 2.19098
      vertex 3 -75 2.19098
      vertex 3 -2.87186 2.19098
    endloop
  endfacet
  facet normal 0 0 1
    outer loop
      vertex 3 -75 2.19098
      vertex 2.41222 -2.87186 2.19098
      vertex 2.41222 -75 2.19098
    endloop
  endfacet
  facet normal 0.951056 0 0.309018
    outer loop
      vertex 2.14935 -3 3
      vertex 2.14935 -75 3
      vertex 2.19098 -3 2.87186
    endloop
  endfacet
  facet normal 0.951056 -0 0.309018
    outer loop
      vertex 2.19098 -3 2.87186
      vertex 2.35796 -2.35796 2.35796
      vertex 2.19098 -2.41222 2.87186
    endloop
  endfacet
  facet normal 0.951056 -3.3492e-08 0.309018
    outer loop
      vertex 2.35796 -2.35796 2.35796
      vertex 2.19098 -3 2.87186
      vertex 2.41222 -2.87186 2.19098
    endloop
  endfacet
  facet normal 0.951056 -2.68556e-10 0.309018
    outer loop
      vertex 2.41222 -75 2.19098
      vertex 2.19098 -3 2.87186
      vertex 2.14935 -75 3
    endloop
  endfacet
  facet normal 0.951056 0 0.309018
    outer loop
      vertex 2.19098 -3 2.87186
      vertex 2.41222 -75 2.19098
      vertex 2.41222 -2.87186 2.19098
    endloop
  endfacet
  facet normal -1 0 0
    outer loop
      vertex 2 -3 3
      vertex 2 -2 20
      vertex 2 -2 3
    endloop
  endfacet
  facet normal -1 -0 0
    outer loop
      vertex 2 -2 20
      vertex 2 -3 3
      vertex 2 -3 20
    endloop
  endfacet
  facet normal 0 0 1
    outer loop
      vertex 3 -2 20
      vertex 2.19098 -2.41222 20
      vertex 3 -2.14935 20
    endloop
  endfacet
  facet normal -0 0 1
    outer loop
      vertex 2 -2 20
      vertex 2.19098 -2.41222 20
      vertex 3 -2 20
    endloop
  endfacet
  facet normal 0 0 1
    outer loop
      vertex 2 -3 20
      vertex 2.19098 -2.41222 20
      vertex 2 -2 20
    endloop
  endfacet
  facet normal 0 0 1
    outer loop
      vertex 2.19098 -2.41222 20
      vertex 2 -3 20
      vertex 2.19098 -3 20
    endloop
  endfacet
  facet normal 1 -0 0
    outer loop
      vertex 3 -2.14935 20
      vertex 3 -2 3
      vertex 3 -2 20
    endloop
  endfacet
  facet normal 1 0 0
    outer loop
      vertex 3 -2 3
      vertex 3 -2.14935 20
      vertex 3 -2.14935 3
    endloop
  endfacet
  facet normal 0 -1 0
    outer loop
      vertex 2 -3 3
      vertex 2.19098 -3 20
      vertex 2 -3 20
    endloop
  endfacet
  facet normal 0 -1 0
    outer loop
      vertex 2.14935 -3 3
      vertex 2.19098 -3 20
      vertex 2 -3 3
    endloop
  endfacet
  facet normal 0 -1 -0
    outer loop
      vertex 2.19098 -3 20
      vertex 2.14935 -3 3
      vertex 2.19098 -3 2.87186
    endloop
  endfacet
  facet normal 1 -0 0
    outer loop
      vertex 2.19098 -3 20
      vertex 2.19098 -2.41222 2.87186
      vertex 2.19098 -2.41222 20
    endloop
  endfacet
  facet normal 1 0 0
    outer loop
      vertex 2.19098 -2.41222 2.87186
      vertex 2.19098 -3 20
      vertex 2.19098 -3 2.87186
    endloop
  endfacet
  facet normal 0 0 0
    outer loop
      vertex 2.19098 -2.41222 2
      vertex 2.19098 -2.42586 2
      vertex 2.19098 -3 2
    endloop
  endfacet
  facet normal 0.309018 -0.951056 1.13741e-09
    outer loop
      vertex 2.19098 -2.41222 20
      vertex 2.87186 -2.19098 3
      vertex 3 -2.14935 20
    endloop
  endfacet
  facet normal 0.309018 -0.951056 0
    outer loop
      vertex 2.19098 -2.41222 2.87186
      vertex 2.87186 -2.19098 3
      vertex 2.19098 -2.41222 20
    endloop
  endfacet
  facet normal 0.309018 -0.951056 3.3492e-08
    outer loop
      vertex 2.35796 -2.35796 2.35796
      vertex 2.87186 -2.19098 3
      vertex 2.19098 -2.41222 2.87186
    endloop
  endfacet
  facet normal 0.309018 -0.951056 0
    outer loop
      vertex 2.87186 -2.19098 3
      vertex 2.35796 -2.35796 2.35796
      vertex 2.87186 -2.19098 2.41222
    endloop
  endfacet
  facet normal 0.309018 -0.951056 0
    outer loop
      vertex 3 -2.14935 20
      vertex 2.87186 -2.19098 3
      vertex 3 -2.14935 3
    endloop
  endfacet
  facet normal 1 -0 0
    outer loop
      vertex 23 -75 20
      vertex 23 -2 2
      vertex 23 -2 20
    endloop
  endfacet
  facet normal 1 0 0
    outer loop
      vertex 23 -2 2
      vertex 23 -75 20
      vertex 23 -75 2
    endloop
  endfacet
  facet normal 0 0 0
    outer loop
      vertex 21 -75 2
      vertex 21 -3 2
      vertex 21 -2 2
    endloop
  endfacet
  facet normal -1 0 0
    outer loop
      vertex 21 -3 2
      vertex 21 -75 2
      vertex 21 -3 2.14935
    endloop
  endfacet
  facet normal -1 -0 0
    outer loop
      vertex 21 -2.19098 2.41222
      vertex 21 -3 2.14935
      vertex 21 -2.19098 3
    endloop
  endfacet
  facet normal -1 0 0
    outer loop
      vertex 21 -2.19098 3
      vertex 21 -2 20
      vertex 21 -2 3
    endloop
  endfacet
  facet normal -1 0 0
    outer loop
      vertex 21 -3 2.14935
      vertex 21 -2 20
      vertex 21 -2.19098 3
    endloop
  endfacet
  facet normal -1 0 0
    outer loop
      vertex 21 -75 20
      vertex 21 -3 2.14935
      vertex 21 -75 2
    endloop
  endfacet
  facet normal -1 0 0
    outer loop
      vertex 21 -3 2.14935
      vertex 21 -75 20
      vertex 21 -2 20
    endloop
  endfacet
  facet normal 0 0 -1
    outer loop
      vertex 22.8483 -75 2
      vertex 23 -2 2
      vertex 23 -75 2
    endloop
  endfacet
  facet normal -0 0 -1
    outer loop
      vertex 23 -2 2
      vertex 22.8483 -75 2
      vertex 22.8483 -2 2
    endloop
  endfacet
  facet normal 1 0 0
    outer loop
      vertex 21 -1.36947 0.198063
      vertex 21 -2 0.151722
      vertex 21 -1.55496 0.0501442
    endloop
  endfacet
  facet normal 1 -0 0
    outer loop
      vertex 21 -75 0.198063
      vertex 21 -2 0.151722
      vertex 21 -1.36947 0.198063
    endloop
  endfacet
  facet normal 1 0 0
    outer loop
      vertex 21 -75 0.198063
      vertex 21 -2 4.44089e-16
      vertex 21 -2 0.151722
    endloop
  endfacet
  facet normal 1 0 0
    outer loop
      vertex 21 -2 4.44089e-16
      vertex 21 -75 0.198063
      vertex 21 -75 1.66533e-14
    endloop
  endfacet
  facet normal 0 0 -1
    outer loop
      vertex 21 -75 0.198063
      vertex 21.8678 -1.36947 0.198063
      vertex 21.8678 -75 0.198063
    endloop
  endfacet
  facet normal -0 0 -1
    outer loop
      vertex 21.8678 -1.36947 0.198063
      vertex 21 -75 0.198063
      vertex 21 -1.36947 0.198063
    endloop
  endfacet
  facet normal 0.974928 -0 0.222521
    outer loop
      vertex 22.8483 -75 2
      vertex 22.9499 -2 1.55496
      vertex 22.8483 -2 2
    endloop
  endfacet
  facet normal 0.974928 0 0.222521
    outer loop
      vertex 22.9499 -2 1.55496
      vertex 22.8483 -75 2
      vertex 22.9499 -75 1.55496
    endloop
  endfacet
  facet normal 0.781831 0 -0.62349
    outer loop
      vertex 22.9499 -2 1.55496
      vertex 22.9499 -75 1.55496
      vertex 22.8019 -2 1.36947
    endloop
  endfacet
  facet normal 0.781831 -2.49151e-07 -0.62349
    outer loop
      vertex 22.8019 -1.13223 1.36947
      vertex 21.8678 -1.36947 0.198063
      vertex 22.2822 -0.717776 0.717776
    endloop
  endfacet
  facet normal 0.781831 0 -0.62349
    outer loop
      vertex 22.8019 -2 1.36947
      vertex 21.8678 -1.36947 0.198063
      vertex 22.8019 -1.13223 1.36947
    endloop
  endfacet
  facet normal 0.781831 -3.85726e-10 -0.62349
    outer loop
      vertex 21.9424 -75 0.29165
      vertex 22.8019 -2 1.36947
      vertex 22.9499 -75 1.55496
    endloop
  endfacet
  facet normal 0.781834 -7.16592e-08 -0.623487
    outer loop
      vertex 21.8678 -75 0.198063
      vertex 22.8019 -2 1.36947
      vertex 21.9424 -75 0.29165
    endloop
  endfacet
  facet normal 0.781831 0 -0.62349
    outer loop
      vertex 22.8019 -2 1.36947
      vertex 21.8678 -75 0.198063
      vertex 21.8678 -1.36947 0.198063
    endloop
  endfacet
  facet normal 1 -0 0
    outer loop
      vertex 21 -0.151722 20
      vertex 21 4.44089e-16 2
      vertex 21 4.44089e-15 20
    endloop
  endfacet
  facet normal 1 0 0
    outer loop
      vertex 21 4.44089e-16 2
      vertex 21 -0.151722 20
      vertex 21 -0.151722 2
    endloop
  endfacet
  facet normal 0 1 -0
    outer loop
      vertex 23 -2 2
      vertex 22.8019 -2 20
      vertex 23 -2 20
    endloop
  endfacet
  facet normal 0 1 -0
    outer loop
      vertex 22.8483 -2 2
      vertex 22.8019 -2 20
      vertex 23 -2 2
    endloop
  endfacet
  facet normal 0 1 0
    outer loop
      vertex 22.8483 -2 2
      vertex 22.8019 -2 1.36947
      vertex 22.8019 -2 20
    endloop
  endfacet
  facet normal 0 1 0
    outer loop
      vertex 22.8019 -2 1.36947
      vertex 22.8483 -2 2
      vertex 22.9499 -2 1.55496
    endloop
  endfacet
  facet normal 1 -0 0
    outer loop
      vertex 22.8019 -2 20
      vertex 22.8019 -1.13223 1.36947
      vertex 22.8019 -1.13223 20
    endloop
  endfacet
  facet normal 1 0 0
    outer loop
      vertex 22.8019 -1.13223 1.36947
      vertex 22.8019 -2 20
      vertex 22.8019 -2 1.36947
    endloop
  endfacet
  facet normal -0.222521 0.974928 0
    outer loop
      vertex 21.445 -0.0501442 2
      vertex 21 -0.151722 20
      vertex 21.445 -0.0501442 20
    endloop
  endfacet
  facet normal -0.222521 0.974928 0
    outer loop
      vertex 21 -0.151722 20
      vertex 21.445 -0.0501442 2
      vertex 21 -0.151722 2
    endloop
  endfacet
  facet normal 0.62349 0.781831 -5.99575e-09
    outer loop
      vertex 22.8019 -1.13223 20
      vertex 21.6305 -0.198063 2
      vertex 21.445 -0.0501442 20
    endloop
  endfacet
  facet normal 0.62349 0.781831 -0
    outer loop
      vertex 22.8019 -1.13223 1.36947
      vertex 21.6305 -0.198063 2
      vertex 22.8019 -1.13223 20
    endloop
  endfacet
  facet normal 0.62349 0.781831 0
    outer loop
      vertex 22.8019 -1.13223 1.36947
      vertex 21.6305 -0.198063 1.13223
      vertex 21.6305 -0.198063 2
    endloop
  endfacet
  facet normal 0.62349 0.781831 2.57683e-07
    outer loop
      vertex 21.6305 -0.198063 1.13223
      vertex 22.8019 -1.13223 1.36947
      vertex 22.2822 -0.717776 0.717776
    endloop
  endfacet
  facet normal 0.62349 0.781831 0
    outer loop
      vertex 21.445 -0.0501442 20
      vertex 21.6305 -0.198063 2
      vertex 21.445 -0.0501442 2
    endloop
  endfacet
  facet normal 0 0 -1
    outer loop
      vertex 20.809 -3 2
      vertex 20.5515 -3 2
      vertex 20.809 -2.42586 2
    endloop
  endfacet
  facet normal 0 0 0
    outer loop
      vertex 20.5515 -3 2
      vertex 20.809 -3 2
      vertex 21 -3 2
    endloop
  endfacet
  facet normal 0 0 -1
    outer loop
      vertex 21 -75 2
      vertex 20.5515 -3 2
      vertex 21 -3 2
    endloop
  endfacet
  facet normal 0 -0 -1
    outer loop
      vertex 20.5515 -3 2
      vertex 21 -75 2
      vertex 20 -75 2
    endloop
  endfacet
  facet normal 0 0 -1
    outer loop
      vertex 20.809 -2.42586 2
      vertex 20.642 -2.35796 2
      vertex 20.809 -2.41222 2
    endloop
  endfacet
  facet normal 0 0 -1
    outer loop
      vertex 20.5515 -3 2
      vertex 20.642 -2.35796 2
      vertex 20.809 -2.42586 2
    endloop
  endfacet
  facet normal 0 0 -1
    outer loop
      vertex 20.5515 -3 2
      vertex 20 -3 2
      vertex 20.642 -2.35796 2
    endloop
  endfacet
  facet normal 0 0 -1
    outer loop
      vertex 20 -3 2
      vertex 20.5515 -3 2
      vertex 20 -75 2
    endloop
  endfacet
  facet normal 0 -1 0
    outer loop
      vertex 20 -75 2.19098
      vertex 20 -75 2
      vertex 20.5878 -75 2.19098
    endloop
  endfacet
  facet normal 0 -1 0
    outer loop
      vertex 20.5878 -75 2.19098
      vertex 21 -75 3
      vertex 20.8507 -75 3
    endloop
  endfacet
  facet normal 0 -1 0
    outer loop
      vertex 20.5878 -75 2.19098
      vertex 21 -75 2
      vertex 21 -75 3
    endloop
  endfacet
  facet normal 0 -1 0
    outer loop
      vertex 21 -75 2
      vertex 20.5878 -75 2.19098
      vertex 20 -75 2
    endloop
  endfacet
  facet normal -0 0 1
    outer loop
      vertex 20.8507 -3 3
      vertex 21 -75 3
      vertex 21 -3 3
    endloop
  endfacet
  facet normal 0 0 1
    outer loop
      vertex 21 -75 3
      vertex 20.8507 -3 3
      vertex 20.8507 -75 3
    endloop
  endfacet
  facet normal 0 0 0
    outer loop
      vertex 21 -3 3
      vertex 21 -75 3
      vertex 21 -2 3
    endloop
  endfacet
  facet normal -1 0 0
    outer loop
      vertex 20 -3 2
      vertex 20 -75 2
      vertex 20 -3 2.14935
    endloop
  endfacet
  facet normal -1 0 0
    outer loop
      vertex 20 -75 2.19098
      vertex 20 -3 2.14935
      vertex 20 -75 2
    endloop
  endfacet
  facet normal -1 0 0
    outer loop
      vertex 20 -3 2.14935
      vertex 20 -75 2.19098
      vertex 20 -2.87186 2.19098
    endloop
  endfacet
  facet normal 1 0 0
    outer loop
      vertex 21 -2.19098 3
      vertex 21 -3 2.14935
      vertex 21 -2.19098 2.41222
    endloop
  endfacet
  facet normal 1 -0 0
    outer loop
      vertex 21 -75 3
      vertex 21 -3 2.14935
      vertex 21 -2.19098 3
    endloop
  endfacet
  facet normal 1 0 0
    outer loop
      vertex 21 -75 2
      vertex 21 -3 2.14935
      vertex 21 -75 3
    endloop
  endfacet
  facet normal 1 0 0
    outer loop
      vertex 21 -3 2.14935
      vertex 21 -75 2
      vertex 21 -3 2
    endloop
  endfacet
  facet normal 0 0 0
    outer loop
      vertex 21 -2.19098 3
      vertex 21 -2 3
      vertex 21 -75 3
    endloop
  endfacet
  facet normal -0 0 1
    outer loop
      vertex 20 -2.87186 2.19098
      vertex 20.5878 -75 2.19098
      vertex 20.5878 -2.87186 2.19098
    endloop
  endfacet
  facet normal 0 0 1
    outer loop
      vertex 20.5878 -75 2.19098
      vertex 20 -2.87186 2.19098
      vertex 20 -75 2.19098
    endloop
  endfacet
  facet normal -0.951056 3.82314e-07 0.309018
    outer loop
      vertex 20.809 -3 2.87186
      vertex 20.642 -2.35796 2.35796
      vertex 20.5878 -2.87186 2.19098
    endloop
  endfacet
  facet normal -0.951056 0 0.309017
    outer loop
      vertex 20.642 -2.35796 2.35796
      vertex 20.809 -3 2.87186
      vertex 20.809 -2.41222 2.87186
    endloop
  endfacet
  facet normal -0.951056 0 0.309018
    outer loop
      vertex 20.5878 -75 2.19098
      vertex 20.809 -3 2.87186
      vertex 20.5878 -2.87186 2.19098
    endloop
  endfacet
  facet normal -0.951054 -6.86325e-08 0.309024
    outer loop
      vertex 20.5878 -75 2.19098
      vertex 20.8507 -3 3
      vertex 20.809 -3 2.87186
    endloop
  endfacet
  facet normal -0.951056 0 0.309019
    outer loop
      vertex 20.8507 -3 3
      vertex 20.5878 -75 2.19098
      vertex 20.8507 -75 3
    endloop
  endfacet
  facet normal 1 -0 0
    outer loop
      vertex 21 -3 20
      vertex 21 -2 3
      vertex 21 -2 20
    endloop
  endfacet
  facet normal 1 0 0
    outer loop
      vertex 21 -2 3
      vertex 21 -3 20
      vertex 21 -3 3
    endloop
  endfacet
  facet normal 0 0 1
    outer loop
      vertex 21 -2 20
      vertex 20.809 -2.41222 20
      vertex 21 -3 20
    endloop
  endfacet
  facet normal -0 0 1
    outer loop
      vertex 20 -2 20
      vertex 20.809 -2.41222 20
      vertex 21 -2 20
    endloop
  endfacet
  facet normal 0 0 1
    outer loop
      vertex 20.809 -2.41222 20
      vertex 20 -2 20
      vertex 20 -2.14935 20
    endloop
  endfacet
  facet normal 0 0 1
    outer loop
      vertex 21 -3 20
      vertex 20.809 -2.41222 20
      vertex 20.809 -3 20
    endloop
  endfacet
  facet normal -1 0 0
    outer loop
      vertex 20 -2.14935 3
      vertex 20 -2 20
      vertex 20 -2 3
    endloop
  endfacet
  facet normal -1 -0 0
    outer loop
      vertex 20 -2 20
      vertex 20 -2.14935 3
      vertex 20 -2.14935 20
    endloop
  endfacet
  facet normal 0 -1 0
    outer loop
      vertex 20.809 -3 20
      vertex 20.8507 -3 3
      vertex 21 -3 20
    endloop
  endfacet
  facet normal -0 -1 0
    outer loop
      vertex 20.8507 -3 3
      vertex 20.809 -3 20
      vertex 20.809 -3 2.87186
    endloop
  endfacet
  facet normal 0 -1 -0
    outer loop
      vertex 21 -3 20
      vertex 20.8507 -3 3
      vertex 21 -3 3
    endloop
  endfacet
  facet normal -1 0 0
    outer loop
      vertex 20.809 -3 2.87186
      vertex 20.809 -2.41222 20
      vertex 20.809 -2.41222 2.87186
    endloop
  endfacet
  facet normal -1 -0 0
    outer loop
      vertex 20.809 -2.41222 20
      vertex 20.809 -3 2.87186
      vertex 20.809 -3 20
    endloop
  endfacet
  facet normal 0 0 0
    outer loop
      vertex 20.809 -3 2
      vertex 20.809 -2.42586 2
      vertex 20.809 -2.41222 2
    endloop
  endfacet
  facet normal -0.309018 -0.951056 0
    outer loop
      vertex 20.1281 -2.19098 3
      vertex 20 -2.14935 20
      vertex 20 -2.14935 3
    endloop
  endfacet
  facet normal -0.309018 -0.951056 -1.60829e-09
    outer loop
      vertex 20 -2.14935 20
      vertex 20.1281 -2.19098 3
      vertex 20.809 -2.41222 20
    endloop
  endfacet
  facet normal -0.309018 -0.951056 0
    outer loop
      vertex 20.1281 -2.19098 3
      vertex 20.809 -2.41222 2.87186
      vertex 20.809 -2.41222 20
    endloop
  endfacet
  facet normal -0.309018 -0.951056 0
    outer loop
      vertex 20.642 -2.35796 2.35796
      vertex 20.1281 -2.19098 3
      vertex 20.1281 -2.19098 2.41222
    endloop
  endfacet
  facet normal -0.309018 -0.951056 3.09184e-08
    outer loop
      vertex 20.1281 -2.19098 3
      vertex 20.642 -2.35796 2.35796
      vertex 20.809 -2.41222 2.87186
    endloop
  endfacet
  facet normal 1 -0 0
    outer loop
      vertex 23 -148 20
      vertex 23 -75 2
      vertex 23 -75 20
    endloop
  endfacet
  facet normal 1 0 0
    outer loop
      vertex 23 -75 2
      vertex 23 -148 20
      vertex 23 -148 2
    endloop
  endfacet
  facet normal 0 1 -0
    outer loop
      vertex 20 -148 3
      vertex 3 -148 20
      vertex 20 -148 20
    endloop
  endfacet
  facet normal 0 1 0
    outer loop
      vertex 3 -148 20
      vertex 20 -148 3
      vertex 3 -148 3
    endloop
  endfacet
  facet normal 0 0 0
    outer loop
      vertex 20 -148 20
      vertex 3 -148 20
      vertex 2 -148 20
    endloop
  endfacet
  facet normal 0 0 0
    outer loop
      vertex 20 -148 20
      vertex 2 -148 20
      vertex 21 -148 20
    endloop
  endfacet
  facet normal 0 -1 0
    outer loop
      vertex 2 -150 2
      vertex 21 -150 20
      vertex 2 -150 20
    endloop
  endfacet
  facet normal 0 -1 -0
    outer loop
      vertex 21 -150 20
      vertex 2 -150 2
      vertex 21 -150 2
    endloop
  endfacet
  facet normal 0 2.22045e-16 -1
    outer loop
      vertex 2 -148 4.44089e-16
      vertex 21 -75 1.66533e-14
      vertex 21 -148 4.44089e-16
    endloop
  endfacet
  facet normal 0 2.22045e-16 -1
    outer loop
      vertex 21 -75 1.66533e-14
      vertex 2 -148 4.44089e-16
      vertex 2 -75 1.66533e-14
    endloop
  endfacet
  facet normal 0 0 1
    outer loop
      vertex 23 -75 20
      vertex 22.8019 -148 20
      vertex 23 -148 20
    endloop
  endfacet
  facet normal -0 0 1
    outer loop
      vertex 21 -148 20
      vertex 22.8019 -148.868 20
      vertex 22.8019 -148 20
    endloop
  endfacet
  facet normal 0 0 1
    outer loop
      vertex 21 -148 20
      vertex 22.8019 -148 20
      vertex 23 -75 20
    endloop
  endfacet
  facet normal 0 0 1
    outer loop
      vertex 21 -148 20
      vertex 23 -75 20
      vertex 21 -75 20
    endloop
  endfacet
  facet normal 0 0 1
    outer loop
      vertex 22.8019 -148.868 20
      vertex 21 -148 20
      vertex 21.445 -149.95 20
    endloop
  endfacet
  facet normal 0 0 1
    outer loop
      vertex 21 -148 20
      vertex 21 -149.848 20
      vertex 21.445 -149.95 20
    endloop
  endfacet
  facet normal -0 0 1
    outer loop
      vertex 2 -148 20
      vertex 21 -149.848 20
      vertex 21 -148 20
    endloop
  endfacet
  facet normal 0 0 1
    outer loop
      vertex 2 -149.848 20
      vertex 21 -149.848 20
      vertex 2 -148 20
    endloop
  endfacet
  facet normal 0 0 1
    outer loop
      vertex 21 -149.848 20
      vertex 2 -149.848 20
      vertex 21 -150 20
    endloop
  endfacet
  facet normal 0 0 1
    outer loop
      vertex 21 -150 20
      vertex 2 -149.848 20
      vertex 2 -150 20
    endloop
  endfacet
  facet normal 0 0 1
    outer loop
      vertex 0.198063 -148 20
      vertex 2 -148 20
      vertex 2 -135 20
    endloop
  endfacet
  facet normal 0 0 1
    outer loop
      vertex 0.198063 -148.868 20
      vertex 2 -148 20
      vertex 0.198063 -148 20
    endloop
  endfacet
  facet normal 0 -0 1
    outer loop
      vertex 1.55496 -149.95 20
      vertex 2 -148 20
      vertex 0.198063 -148.868 20
    endloop
  endfacet
  facet normal -0 0 1
    outer loop
      vertex 1.83697e-15 -135 20
      vertex 0.198063 -148 20
      vertex 2 -135 20
    endloop
  endfacet
  facet normal 0 0 1
    outer loop
      vertex 0.198063 -148 20
      vertex 1.83697e-15 -135 20
      vertex 2.44929e-16 -148 20
    endloop
  endfacet
  facet normal 0 0 1
    outer loop
      vertex 2 -148 20
      vertex 1.55496 -149.95 20
      vertex 2 -149.848 20
    endloop
  endfacet
  facet normal 0 0 0
    outer loop
      vertex 2 -148 20
      vertex 2 -75 20
      vertex 2 -135 20
    endloop
  endfacet
  facet normal 0 1 0
    outer loop
      vertex 2 -75 20
      vertex 9.18485e-15 -75 6.34262
      vertex 9.18485e-15 -75 20
    endloop
  endfacet
  facet normal -0 1 0
    outer loop
      vertex 9.18485e-15 -75 6.34262
      vertex 2 -75 20
      vertex 2 -75 5.79108
    endloop
  endfacet
  facet normal 0 0 0
    outer loop
      vertex 2 -75 20
      vertex 2 -75 3
      vertex 2 -75 2
    endloop
  endfacet
  facet normal 0 0 0
    outer loop
      vertex 2 -75 5.79108
      vertex 2 -75 20
      vertex 2 -75 2
    endloop
  endfacet
  facet normal 0 1 0
    outer loop
      vertex 22.8483 -75 2
      vertex 23 -75 20
      vertex 23 -75 2
    endloop
  endfacet
  facet normal 0 1 0
    outer loop
      vertex 23 -75 20
      vertex 22.8483 -75 2
      vertex 21 -75 20
    endloop
  endfacet
  facet normal 0 1 0
    outer loop
      vertex 22.8483 -75 2
      vertex 21 -75 2
      vertex 21 -75 20
    endloop
  endfacet
  facet normal 0 1 0
    outer loop
      vertex 22.9499 -75 1.55496
      vertex 21 -75 2
      vertex 22.8483 -75 2
    endloop
  endfacet
  facet normal 0 1 0
    outer loop
      vertex 21 -75 2
      vertex 22.9499 -75 1.55496
      vertex 21.9424 -75 0.29165
    endloop
  endfacet
  facet normal 0 1 0
    outer loop
      vertex 21 -75 2
      vertex 21.9424 -75 0.29165
      vertex 15.7475 -75 2
    endloop
  endfacet
  facet normal -0 1 0
    outer loop
      vertex 21.9424 -75 0.29165
      vertex 22.9499 -75 1.55496
      vertex 21.8678 -75 0.198063
    endloop
  endfacet
  facet normal -0 0 1
    outer loop
      vertex 2 -75 2
      vertex 3 -147 2
      vertex 15.7475 -75 2
    endloop
  endfacet
  facet normal 0 0 1
    outer loop
      vertex 3 -147 2
      vertex 2.19098 -147 2
      vertex 2.35796 -147.642 2
    endloop
  endfacet
  facet normal 0 0 1
    outer loop
      vertex 3 -147 2
      vertex 2 -75 2
      vertex 2.19098 -147 2
    endloop
  endfacet
  facet normal 0 0 1
    outer loop
      vertex 2.19098 -147 2
      vertex 2 -75 2
      vertex 2 -147 2
    endloop
  endfacet
  facet normal 0 0 1
    outer loop
      vertex 21 -75 2
      vertex 20.809 -147 2
      vertex 21 -147 2
    endloop
  endfacet
  facet normal 0 0 1
    outer loop
      vertex 20.809 -147 2
      vertex 20.642 -147.642 2
      vertex 20.809 -147.588 2
    endloop
  endfacet
  facet normal 0 0 1
    outer loop
      vertex 20 -147 2
      vertex 20.809 -147 2
      vertex 21 -75 2
    endloop
  endfacet
  facet normal 0 0 1
    outer loop
      vertex 20.809 -147 2
      vertex 20 -147 2
      vertex 20.642 -147.642 2
    endloop
  endfacet
  facet normal -0 0 1
    outer loop
      vertex 3 -147 2
      vertex 20 -147.851 2
      vertex 20 -147 2
    endloop
  endfacet
  facet normal -0 0 1
    outer loop
      vertex 15.7475 -75 2
      vertex 20 -147 2
      vertex 21 -75 2
    endloop
  endfacet
  facet normal 0 0 1
    outer loop
      vertex 3 -147 2
      vertex 20 -147 2
      vertex 15.7475 -75 2
    endloop
  endfacet
  facet normal 0 0 1
    outer loop
      vertex 3 -147.851 2
      vertex 20 -147.851 2
      vertex 3 -147 2
    endloop
  endfacet
  facet normal 0 0 1
    outer loop
      vertex 20 -147.851 2
      vertex 3 -147.851 2
      vertex 20 -148 2
    endloop
  endfacet
  facet normal 0 0 1
    outer loop
      vertex 20 -148 2
      vertex 3 -147.851 2
      vertex 3 -148 2
    endloop
  endfacet
  facet normal 0 0 1
    outer loop
      vertex 2.35796 -147.642 2
      vertex 2.19098 -147 2
      vertex 2.19098 -147.588 2
    endloop
  endfacet
  facet normal 0 0 0
    outer loop
      vertex 2 -147 2
      vertex 2 -75 2
      vertex 2 -148 2
    endloop
  endfacet
  facet normal 0 0 0
    outer loop
      vertex 21 -75 2
      vertex 21 -147 2
      vertex 21 -148 2
    endloop
  endfacet
  facet normal 0 0 0
    outer loop
      vertex 21 -75 2
      vertex 21 -148 2
      vertex 21 -147 2
    endloop
  endfacet
  facet normal -1 0 0
    outer loop
      vertex 21 -147 2.14935
      vertex 21 -75 2
      vertex 21 -147 2
    endloop
  endfacet
  facet normal -1 0 0
    outer loop
      vertex 21 -75 2
      vertex 21 -147 2.14935
      vertex 21 -75 20
    endloop
  endfacet
  facet normal -1 0 0
    outer loop
      vertex 21 -147.809 3
      vertex 21 -147 2.14935
      vertex 21 -147.809 2.41222
    endloop
  endfacet
  facet normal -1 0 0
    outer loop
      vertex 21 -148 20
      vertex 21 -147 2.14935
      vertex 21 -147.809 3
    endloop
  endfacet
  facet normal -1 0 0
    outer loop
      vertex 21 -148 20
      vertex 21 -147.809 3
      vertex 21 -148 3
    endloop
  endfacet
  facet normal -1 0 0
    outer loop
      vertex 21 -147 2.14935
      vertex 21 -148 20
      vertex 21 -75 20
    endloop
  endfacet
  facet normal 0 0 -1
    outer loop
      vertex 22.8483 -148 2
      vertex 23 -75 2
      vertex 23 -148 2
    endloop
  endfacet
  facet normal -0 0 -1
    outer loop
      vertex 23 -75 2
      vertex 22.8483 -148 2
      vertex 22.8483 -75 2
    endloop
  endfacet
  facet normal 1 0 0
    outer loop
      vertex 21 -75 0.198063
      vertex 21 -148 0.151722
      vertex 21 -75 1.66533e-14
    endloop
  endfacet
  facet normal 1 0 0
    outer loop
      vertex 21 -148 0.151722
      vertex 21 -148.631 0.198063
      vertex 21 -148.445 0.0501442
    endloop
  endfacet
  facet normal 1 -0 0
    outer loop
      vertex 21 -148.631 0.198063
      vertex 21 -148 0.151722
      vertex 21 -75 0.198063
    endloop
  endfacet
  facet normal 1 0 0
    outer loop
      vertex 21 -75 1.66533e-14
      vertex 21 -148 0.151722
      vertex 21 -148 4.44089e-16
    endloop
  endfacet
  facet normal 0 0 -1
    outer loop
      vertex 21 -148.631 0.198063
      vertex 21.8678 -75 0.198063
      vertex 21.8678 -148.631 0.198063
    endloop
  endfacet
  facet normal -0 0 -1
    outer loop
      vertex 21.8678 -75 0.198063
      vertex 21 -148.631 0.198063
      vertex 21 -75 0.198063
    endloop
  endfacet
  facet normal 0.974928 -0 0.222521
    outer loop
      vertex 22.8483 -148 2
      vertex 22.9499 -75 1.55496
      vertex 22.8483 -75 2
    endloop
  endfacet
  facet normal 0.974928 0 0.222521
    outer loop
      vertex 22.9499 -75 1.55496
      vertex 22.8483 -148 2
      vertex 22.9499 -148 1.55496
    endloop
  endfacet
  facet normal 0.781831 0 -0.62349
    outer loop
      vertex 22.8019 -148 1.36947
      vertex 22.9499 -75 1.55496
      vertex 22.9499 -148 1.55496
    endloop
  endfacet
  facet normal 0.781831 -4.60243e-10 -0.62349
    outer loop
      vertex 22.9499 -75 1.55496
      vertex 22.8019 -148 1.36947
      vertex 21.8678 -75 0.198063
    endloop
  endfacet
  facet normal 0.781831 0 -0.62349
    outer loop
      vertex 22.8019 -148 1.36947
      vertex 21.8678 -148.631 0.198063
      vertex 21.8678 -75 0.198063
    endloop
  endfacet
  facet normal 0.781831 0 -0.62349
    outer loop
      vertex 22.8019 -148.868 1.36947
      vertex 21.8678 -148.631 0.198063
      vertex 22.8019 -148 1.36947
    endloop
  endfacet
  facet normal 0.781831 2.4915e-07 -0.62349
    outer loop
      vertex 21.8678 -148.631 0.198063
      vertex 22.8019 -148.868 1.36947
      vertex 22.2822 -149.282 0.717776
    endloop
  endfacet
  facet normal 0 -1 0
    outer loop
      vertex 2 -148 4.44089e-16
      vertex 21 -148 0.151722
      vertex 2 -148 0.151722
    endloop
  endfacet
  facet normal 0 -1 -0
    outer loop
      vertex 21 -148 0.151722
      vertex 2 -148 4.44089e-16
      vertex 21 -148 4.44089e-16
    endloop
  endfacet
  facet normal 0 0 -1
    outer loop
      vertex 21 -150 2
      vertex 2 -150 2
      vertex 21 -149.848 2
    endloop
  endfacet
  facet normal 0 0 -1
    outer loop
      vertex 21 -149.848 2
      vertex 21.6305 -149.802 2
      vertex 21.445 -149.95 2
    endloop
  endfacet
  facet normal 0 0 -1
    outer loop
      vertex 2 -149.848 2
      vertex 21 -149.848 2
      vertex 2 -150 2
    endloop
  endfacet
  facet normal 0 0 -1
    outer loop
      vertex 21 -149.848 2
      vertex 2 -149.848 2
      vertex 21.6305 -149.802 2
    endloop
  endfacet
  facet normal 0 0 -1
    outer loop
      vertex 2 -149.848 2
      vertex 1.36947 -149.802 2
      vertex 21.6305 -149.802 2
    endloop
  endfacet
  facet normal 0 0 -1
    outer loop
      vertex 1.36947 -149.802 2
      vertex 2 -149.848 2
      vertex 1.55496 -149.95 2
    endloop
  endfacet
  facet normal 0 -1 0
    outer loop
      vertex 1.36947 -149.802 1.13223
      vertex 21.6305 -149.802 2
      vertex 1.36947 -149.802 2
    endloop
  endfacet
  facet normal 0 -1 -0
    outer loop
      vertex 21.6305 -149.802 2
      vertex 1.36947 -149.802 1.13223
      vertex 21.6305 -149.802 1.13223
    endloop
  endfacet
  facet normal 0 0.222523 -0.974927
    outer loop
      vertex 2 -148.445 0.0501442
      vertex 21 -148 0.151722
      vertex 21 -148.445 0.0501442
    endloop
  endfacet
  facet normal 0 0.222523 -0.974927
    outer loop
      vertex 21 -148 0.151722
      vertex 2 -148.445 0.0501442
      vertex 2 -148 0.151722
    endloop
  endfacet
  facet normal -9.78007e-07 -0.623488 -0.781833
    outer loop
      vertex 21.6305 -149.802 1.13223
      vertex 21.8678 -148.631 0.198063
      vertex 22.2822 -149.282 0.717776
    endloop
  endfacet
  facet normal 0 -0.623488 -0.781833
    outer loop
      vertex 21.6305 -149.802 1.13223
      vertex 21 -148.631 0.198063
      vertex 21.8678 -148.631 0.198063
    endloop
  endfacet
  facet normal -0 -0.623486 -0.781834
    outer loop
      vertex 21 -148.631 0.198063
      vertex 2 -148.631 0.198063
      vertex 21 -148.445 0.0501442
    endloop
  endfacet
  facet normal 0 -0.623488 -0.781833
    outer loop
      vertex 21.6305 -149.802 1.13223
      vertex 2 -148.631 0.198063
      vertex 21 -148.631 0.198063
    endloop
  endfacet
  facet normal 0 -0.623488 -0.781833
    outer loop
      vertex 1.36947 -149.802 1.13223
      vertex 2 -148.631 0.198063
      vertex 21.6305 -149.802 1.13223
    endloop
  endfacet
  facet normal 0 -0.623488 -0.781833
    outer loop
      vertex 1.36947 -149.802 1.13223
      vertex 1.13223 -148.631 0.198063
      vertex 2 -148.631 0.198063
    endloop
  endfacet
  facet normal 9.78008e-07 -0.623488 -0.781833
    outer loop
      vertex 1.13223 -148.631 0.198063
      vertex 1.36947 -149.802 1.13223
      vertex 0.717776 -149.282 0.717776
    endloop
  endfacet
  facet normal -0 -0.623486 -0.781834
    outer loop
      vertex 21 -148.445 0.0501442
      vertex 2 -148.631 0.198063
      vertex 2 -148.445 0.0501442
    endloop
  endfacet
  facet normal 1 -0 0
    outer loop
      vertex 21 -150 20
      vertex 21 -149.848 2
      vertex 21 -149.848 20
    endloop
  endfacet
  facet normal 1 0 0
    outer loop
      vertex 21 -149.848 2
      vertex 21 -150 20
      vertex 21 -150 2
    endloop
  endfacet
  facet normal 0 -1 0
    outer loop
      vertex 22.8019 -148 20
      vertex 22.8483 -148 2
      vertex 23 -148 20
    endloop
  endfacet
  facet normal 0 -1 -0
    outer loop
      vertex 22.8483 -148 2
      vertex 22.8019 -148 1.36947
      vertex 22.9499 -148 1.55496
    endloop
  endfacet
  facet normal 0 -1 0
    outer loop
      vertex 22.8019 -148 1.36947
      vertex 22.8483 -148 2
      vertex 22.8019 -148 20
    endloop
  endfacet
  facet normal 0 -1 -0
    outer loop
      vertex 23 -148 20
      vertex 22.8483 -148 2
      vertex 23 -148 2
    endloop
  endfacet
  facet normal 1 -0 0
    outer loop
      vertex 22.8019 -148.868 20
      vertex 22.8019 -148 1.36947
      vertex 22.8019 -148 20
    endloop
  endfacet
  facet normal 1 0 0
    outer loop
      vertex 22.8019 -148 1.36947
      vertex 22.8019 -148.868 20
      vertex 22.8019 -148.868 1.36947
    endloop
  endfacet
  facet normal -0.222521 -0.974928 0
    outer loop
      vertex 21 -149.848 2
      vertex 21.445 -149.95 20
      vertex 21 -149.848 20
    endloop
  endfacet
  facet normal -0.222521 -0.974928 -0
    outer loop
      vertex 21.445 -149.95 20
      vertex 21 -149.848 2
      vertex 21.445 -149.95 2
    endloop
  endfacet
  facet normal 0.62349 -0.781831 0
    outer loop
      vertex 21.6305 -149.802 2
      vertex 21.445 -149.95 20
      vertex 21.445 -149.95 2
    endloop
  endfacet
  facet normal 0.623491 -0.78183 1.66538e-08
    outer loop
      vertex 21.445 -149.95 20
      vertex 21.6305 -149.802 2
      vertex 22.8019 -148.868 20
    endloop
  endfacet
  facet normal 0.623491 -0.78183 0
    outer loop
      vertex 21.6305 -149.802 2
      vertex 22.8019 -148.868 1.36947
      vertex 22.8019 -148.868 20
    endloop
  endfacet
  facet normal 0.623491 -0.78183 0
    outer loop
      vertex 21.6305 -149.802 1.13223
      vertex 22.8019 -148.868 1.36947
      vertex 21.6305 -149.802 2
    endloop
  endfacet
  facet normal 0.623491 -0.78183 8.21003e-07
    outer loop
      vertex 22.8019 -148.868 1.36947
      vertex 21.6305 -149.802 1.13223
      vertex 22.2822 -149.282 0.717776
    endloop
  endfacet
  facet normal 0 1 -0
    outer loop
      vertex 20 -147 2
      vertex 3 -147 2.14935
      vertex 20 -147 2.14935
    endloop
  endfacet
  facet normal 0 1 0
    outer loop
      vertex 3 -147 2.14935
      vertex 20 -147 2
      vertex 3 -147 2
    endloop
  endfacet
  facet normal 0 0 1
    outer loop
      vertex 20 -147.851 3
      vertex 3 -147.851 3
      vertex 20 -148 3
    endloop
  endfacet
  facet normal 0 0 1
    outer loop
      vertex 20.1281 -147.809 3
      vertex 3 -147.851 3
      vertex 20 -147.851 3
    endloop
  endfacet
  facet normal 0 -0 1
    outer loop
      vertex 3 -147.851 3
      vertex 20.1281 -147.809 3
      vertex 2.87186 -147.809 3
    endloop
  endfacet
  facet normal 0 0 1
    outer loop
      vertex 20 -148 3
      vertex 3 -147.851 3
      vertex 3 -148 3
    endloop
  endfacet
  facet normal 0 0 -1
    outer loop
      vertex 3 -147.851 2
      vertex 20 -147.851 2
      vertex 20 -148 2
    endloop
  endfacet
  facet normal 0 0 -1
    outer loop
      vertex 3 -147.851 2
      vertex 20 -148 2
      vertex 3 -148 2
    endloop
  endfacet
  facet normal 0 0 -1
    outer loop
      vertex 20 -147.851 2
      vertex 3 -147.851 2
      vertex 20 -147 2
    endloop
  endfacet
  facet normal -0 0 -1
    outer loop
      vertex 20 -147 2
      vertex 3 -147.851 2
      vertex 3 -147 2
    endloop
  endfacet
  facet normal 0 0 -1
    outer loop
      vertex 20.809 -147.574 2
      vertex 20.5515 -147 2
      vertex 20.809 -147 2
    endloop
  endfacet
  facet normal 0 0 0
    outer loop
      vertex 20.809 -147 2
      vertex 20.5515 -147 2
      vertex 21 -147 2
    endloop
  endfacet
  facet normal 0 1 -0
    outer loop
      vertex 20.1281 -147.809 2.41222
      vertex 2.87186 -147.809 3
      vertex 20.1281 -147.809 3
    endloop
  endfacet
  facet normal 0 1 0
    outer loop
      vertex 2.87186 -147.809 3
      vertex 20.1281 -147.809 2.41222
      vertex 2.87186 -147.809 2.41222
    endloop
  endfacet
  facet normal 0 0.309005 0.95106
    outer loop
      vertex 20 -147 2.14935
      vertex 3 -147 2.14935
      vertex 20 -147.128 2.19098
    endloop
  endfacet
  facet normal -0 0.309018 0.951056
    outer loop
      vertex 20 -147.128 2.19098
      vertex 20.642 -147.642 2.35796
      vertex 20.5878 -147.128 2.19098
    endloop
  endfacet
  facet normal -3.09185e-08 0.309018 0.951056
    outer loop
      vertex 20.642 -147.642 2.35796
      vertex 20 -147.128 2.19098
      vertex 20.1281 -147.809 2.41222
    endloop
  endfacet
  facet normal -0 0.309005 0.95106
    outer loop
      vertex 3 -147.128 2.19098
      vertex 20 -147.128 2.19098
      vertex 3 -147 2.14935
    endloop
  endfacet
  facet normal 0 0.309018 0.951056
    outer loop
      vertex 20 -147.128 2.19098
      vertex 3 -147.128 2.19098
      vertex 20.1281 -147.809 2.41222
    endloop
  endfacet
  facet normal 0 0.309018 0.951056
    outer loop
      vertex 3 -147.128 2.19098
      vertex 2.87186 -147.809 2.41222
      vertex 20.1281 -147.809 2.41222
    endloop
  endfacet
  facet normal 0 0.309018 0.951056
    outer loop
      vertex 2.35796 -147.642 2.35796
      vertex 3 -147.128 2.19098
      vertex 2.41222 -147.128 2.19098
    endloop
  endfacet
  facet normal 3.09184e-08 0.309018 0.951056
    outer loop
      vertex 3 -147.128 2.19098
      vertex 2.35796 -147.642 2.35796
      vertex 2.87186 -147.809 2.41222
    endloop
  endfacet
  facet normal 0 0 -1
    outer loop
      vertex 20.642 -147.642 2
      vertex 20.809 -147.574 2
      vertex 20.809 -147.588 2
    endloop
  endfacet
  facet normal 0 0 -1
    outer loop
      vertex 20.642 -147.642 2
      vertex 20.5515 -147 2
      vertex 20.809 -147.574 2
    endloop
  endfacet
  facet normal -0 -0 -1
    outer loop
      vertex 20.5515 -147 2
      vertex 20.642 -147.642 2
      vertex 20 -147 2
    endloop
  endfacet
  facet normal 0 0 -1
    outer loop
      vertex 20.5515 -147 2
      vertex 21 -75 2
      vertex 21 -147 2
    endloop
  endfacet
  facet normal 0 0 -1
    outer loop
      vertex 20 -147 2
      vertex 21 -75 2
      vertex 20.5515 -147 2
    endloop
  endfacet
  facet normal -0 0 -1
    outer loop
      vertex 21 -75 2
      vertex 20 -147 2
      vertex 20 -75 2
    endloop
  endfacet
  facet normal 0 1 0
    outer loop
      vertex 21 -75 3
      vertex 20.5878 -75 2.19098
      vertex 20.8507 -75 3
    endloop
  endfacet
  facet normal 0 1 -0
    outer loop
      vertex 21 -75 2
      vertex 20.5878 -75 2.19098
      vertex 21 -75 3
    endloop
  endfacet
  facet normal 0 1 0
    outer loop
      vertex 20 -75 2
      vertex 20.5878 -75 2.19098
      vertex 21 -75 2
    endloop
  endfacet
  facet normal 0 1 0
    outer loop
      vertex 20.5878 -75 2.19098
      vertex 20 -75 2
      vertex 20 -75 2.19098
    endloop
  endfacet
  facet normal -0 0 1
    outer loop
      vertex 20.8507 -75 3
      vertex 21 -147 3
      vertex 21 -75 3
    endloop
  endfacet
  facet normal 0 0 1
    outer loop
      vertex 21 -147 3
      vertex 20.8507 -75 3
      vertex 20.8507 -147 3
    endloop
  endfacet
  facet normal 0 0 0
    outer loop
      vertex 21 -75 3
      vertex 21 -147 3
      vertex 21 -148 3
    endloop
  endfacet
  facet normal -1 0 0
    outer loop
      vertex 20 -147 2
      vertex 20 -75 2.19098
      vertex 20 -75 2
    endloop
  endfacet
  facet normal -1 0 0
    outer loop
      vertex 20 -147 2.14935
      vertex 20 -75 2.19098
      vertex 20 -147 2
    endloop
  endfacet
  facet normal -1 -0 0
    outer loop
      vertex 20 -75 2.19098
      vertex 20 -147 2.14935
      vertex 20 -147.128 2.19098
    endloop
  endfacet
  facet normal 1 0 0
    outer loop
      vertex 21 -75 3
      vertex 21 -147 2.14935
      vertex 21 -75 2
    endloop
  endfacet
  facet normal 1 -0 0
    outer loop
      vertex 21 -147.809 3
      vertex 21 -147 2.14935
      vertex 21 -75 3
    endloop
  endfacet
  facet normal 1 0 0
    outer loop
      vertex 21 -147 2.14935
      vertex 21 -147.809 3
      vertex 21 -147.809 2.41222
    endloop
  endfacet
  facet normal 1 0 0
    outer loop
      vertex 21 -75 2
      vertex 21 -147 2.14935
      vertex 21 -147 2
    endloop
  endfacet
  facet normal 0 0 0
    outer loop
      vertex 21 -147.809 3
      vertex 21 -75 3
      vertex 21 -148 3
    endloop
  endfacet
  facet normal -0 0 1
    outer loop
      vertex 20 -75 2.19098
      vertex 20.5878 -147.128 2.19098
      vertex 20.5878 -75 2.19098
    endloop
  endfacet
  facet normal 0 0 1
    outer loop
      vertex 20.5878 -147.128 2.19098
      vertex 20 -75 2.19098
      vertex 20 -147.128 2.19098
    endloop
  endfacet
  facet normal -0.951057 1.4861e-08 0.309017
    outer loop
      vertex 20.5878 -75 2.19098
      vertex 20.809 -147 2.87186
      vertex 20.8507 -75 3
    endloop
  endfacet
  facet normal -0.951056 2.51496e-08 0.309018
    outer loop
      vertex 20.5878 -147.128 2.19098
      vertex 20.809 -147 2.87186
      vertex 20.5878 -75 2.19098
    endloop
  endfacet
  facet normal -0.951056 -3.82313e-07 0.309018
    outer loop
      vertex 20.642 -147.642 2.35796
      vertex 20.809 -147 2.87186
      vertex 20.5878 -147.128 2.19098
    endloop
  endfacet
  facet normal -0.951055 -3.08616e-06 0.309021
    outer loop
      vertex 20.809 -147 2.87186
      vertex 20.642 -147.642 2.35796
      vertex 20.809 -147.588 2.87186
    endloop
  endfacet
  facet normal -0.951054 0 0.309024
    outer loop
      vertex 20.8507 -75 3
      vertex 20.809 -147 2.87186
      vertex 20.8507 -147 3
    endloop
  endfacet
  facet normal 1 -0 0
    outer loop
      vertex 21 -148 20
      vertex 21 -147 3
      vertex 21 -147 20
    endloop
  endfacet
  facet normal 1 0 0
    outer loop
      vertex 21 -147 3
      vertex 21 -148 20
      vertex 21 -148 3
    endloop
  endfacet
  facet normal 0 0 1
    outer loop
      vertex 20.809 -147.588 20
      vertex 21 -147 20
      vertex 20.809 -147 20
    endloop
  endfacet
  facet normal 0 0 1
    outer loop
      vertex 21 -147 20
      vertex 20.809 -147.588 20
      vertex 21 -148 20
    endloop
  endfacet
  facet normal 0 0 1
    outer loop
      vertex 20 -148 20
      vertex 20.809 -147.588 20
      vertex 20 -147.851 20
    endloop
  endfacet
  facet normal 0 0 1
    outer loop
      vertex 20.809 -147.588 20
      vertex 20 -148 20
      vertex 21 -148 20
    endloop
  endfacet
  facet normal -1 0 0
    outer loop
      vertex 20 -148 3
      vertex 20 -147.851 20
      vertex 20 -147.851 3
    endloop
  endfacet
  facet normal -1 -0 0
    outer loop
      vertex 20 -147.851 20
      vertex 20 -148 3
      vertex 20 -148 20
    endloop
  endfacet
  facet normal 0 1 -0
    outer loop
      vertex 21 -147 3
      vertex 20.809 -147 20
      vertex 21 -147 20
    endloop
  endfacet
  facet normal 0 1 -0
    outer loop
      vertex 20.8507 -147 3
      vertex 20.809 -147 20
      vertex 21 -147 3
    endloop
  endfacet
  facet normal 0 1 0
    outer loop
      vertex 20.809 -147 20
      vertex 20.8507 -147 3
      vertex 20.809 -147 2.87186
    endloop
  endfacet
  facet normal -1 -3.24498e-06 0
    outer loop
      vertex 20.809 -147.588 2.87186
      vertex 20.809 -147 20
      vertex 20.809 -147 2.87186
    endloop
  endfacet
  facet normal -1 -0 -1.11358e-07
    outer loop
      vertex 20.809 -147 20
      vertex 20.809 -147.588 2.87186
      vertex 20.809 -147.588 20
    endloop
  endfacet
  facet normal 0 0 0
    outer loop
      vertex 20.809 -147 2
      vertex 20.809 -147.588 2
      vertex 20.809 -147.574 2
    endloop
  endfacet
  facet normal -0.309015 0.951057 -4.56433e-07
    outer loop
      vertex 20.809 -147.588 20
      vertex 20.1281 -147.809 3
      vertex 20 -147.851 20
    endloop
  endfacet
  facet normal -0.309025 0.951054 -3.44122e-08
    outer loop
      vertex 20.809 -147.588 2.87186
      vertex 20.1281 -147.809 3
      vertex 20.809 -147.588 20
    endloop
  endfacet
  facet normal -0.309026 0.951054 -7.1011e-06
    outer loop
      vertex 20.642 -147.642 2.35796
      vertex 20.1281 -147.809 3
      vertex 20.809 -147.588 2.87186
    endloop
  endfacet
  facet normal -0.309018 0.951056 0
    outer loop
      vertex 20.1281 -147.809 3
      vertex 20.642 -147.642 2.35796
      vertex 20.1281 -147.809 2.41222
    endloop
  endfacet
  facet normal -0.30896 0.951075 0
    outer loop
      vertex 20 -147.851 20
      vertex 20.1281 -147.809 3
      vertex 20 -147.851 3
    endloop
  endfacet
  facet normal -1 1.22465e-16 0
    outer loop
      vertex 1.83697e-15 -135 20
      vertex 9.18485e-15 -75 6.34262
      vertex 9.18485e-15 -75 2
    endloop
  endfacet
  facet normal -1 1.22465e-16 0
    outer loop
      vertex 9.18485e-15 -75 6.34262
      vertex 1.83697e-15 -135 20
      vertex 9.18485e-15 -75 20
    endloop
  endfacet
  facet normal -1 1.22465e-16 -5.31813e-24
    outer loop
      vertex 2.44929e-16 -148 2
      vertex 1.83697e-15 -135 20
      vertex 9.18485e-15 -75 2
    endloop
  endfacet
  facet normal -1 1.22465e-16 0
    outer loop
      vertex 1.83697e-15 -135 20
      vertex 2.44929e-16 -148 2
      vertex 2.44929e-16 -148 20
    endloop
  endfacet
  facet normal 0 0 0
    outer loop
      vertex 2 -75 2
      vertex 2 -147 2
      vertex 2 -148 2
    endloop
  endfacet
  facet normal 1 0 0
    outer loop
      vertex 2 -147 2.14935
      vertex 2 -75 3
      vertex 2 -75 20
    endloop
  endfacet
  facet normal 1 0 0
    outer loop
      vertex 2 -75 3
      vertex 2 -147 2.14935
      vertex 2 -75 2
    endloop
  endfacet
  facet normal 1 -0 0
    outer loop
      vertex 2 -148 20
      vertex 2 -147 2.14935
      vertex 2 -75 20
    endloop
  endfacet
  facet normal 1 0 0
    outer loop
      vertex 2 -147 2.14935
      vertex 2 -148 20
      vertex 2 -147.809 3
    endloop
  endfacet
  facet normal 1 0 0
    outer loop
      vertex 2 -147.809 3
      vertex 2 -148 20
      vertex 2 -148 3
    endloop
  endfacet
  facet normal 1 0 0
    outer loop
      vertex 2 -75 2
      vertex 2 -147 2.14935
      vertex 2 -147 2
    endloop
  endfacet
  facet normal 1 0 0
    outer loop
      vertex 2 -147 2.14935
      vertex 2 -147.809 3
      vertex 2 -147.809 2.41222
    endloop
  endfacet
  facet normal 0 0 -1
    outer loop
      vertex 0.151722 -148 2
      vertex 9.18485e-15 -75 2
      vertex 0.151722 -75 2
    endloop
  endfacet
  facet normal 0 -0 -1
    outer loop
      vertex 9.18485e-15 -75 2
      vertex 0.151722 -148 2
      vertex 2.44929e-16 -148 2
    endloop
  endfacet
  facet normal -1 0 0
    outer loop
      vertex 2 -148 4.44089e-16
      vertex 2 -75 0.198063
      vertex 2 -75 1.66533e-14
    endloop
  endfacet
  facet normal -1 0 0
    outer loop
      vertex 2 -148 0.151722
      vertex 2 -75 0.198063
      vertex 2 -148 4.44089e-16
    endloop
  endfacet
  facet normal -1 0 0
    outer loop
      vertex 2 -148 0.151722
      vertex 2 -148.631 0.198063
      vertex 2 -75 0.198063
    endloop
  endfacet
  facet normal -1 0 0
    outer loop
      vertex 2 -148.631 0.198063
      vertex 2 -148 0.151722
      vertex 2 -148.445 0.0501442
    endloop
  endfacet
  facet normal 0 0 -1
    outer loop
      vertex 1.13223 -148.631 0.198063
      vertex 2 -75 0.198063
      vertex 2 -148.631 0.198063
    endloop
  endfacet
  facet normal -0 0 -1
    outer loop
      vertex 2 -75 0.198063
      vertex 1.13223 -148.631 0.198063
      vertex 1.13223 -75 0.198063
    endloop
  endfacet
  facet normal -0.974928 0 0.222521
    outer loop
      vertex 0.0501442 -148 1.55496
      vertex 0.151722 -75 2
      vertex 0.0501442 -75 1.55496
    endloop
  endfacet
  facet normal -0.974928 0 0.222521
    outer loop
      vertex 0.151722 -75 2
      vertex 0.0501442 -148 1.55496
      vertex 0.151722 -148 2
    endloop
  endfacet
  facet normal -0.781831 -4.60243e-10 -0.62349
    outer loop
      vertex 1.13223 -75 0.198063
      vertex 0.198063 -148 1.36947
      vertex 0.0501442 -75 1.55496
    endloop
  endfacet
  facet normal -0.781831 0 -0.62349
    outer loop
      vertex 1.13223 -148.631 0.198063
      vertex 0.198063 -148 1.36947
      vertex 1.13223 -75 0.198063
    endloop
  endfacet
  facet normal -0.781831 0 -0.62349
    outer loop
      vertex 1.13223 -148.631 0.198063
      vertex 0.198063 -148.868 1.36947
      vertex 0.198063 -148 1.36947
    endloop
  endfacet
  facet normal -0.781831 -6.68939e-09 -0.62349
    outer loop
      vertex 0.198063 -148.868 1.36947
      vertex 1.13223 -148.631 0.198063
      vertex 0.717776 -149.282 0.717776
    endloop
  endfacet
  facet normal -0.781831 -0 -0.62349
    outer loop
      vertex 0.0501442 -75 1.55496
      vertex 0.198063 -148 1.36947
      vertex 0.0501442 -148 1.55496
    endloop
  endfacet
  facet normal -1 0 0
    outer loop
      vertex 2 -150 2
      vertex 2 -149.848 20
      vertex 2 -149.848 2
    endloop
  endfacet
  facet normal -1 -0 0
    outer loop
      vertex 2 -149.848 20
      vertex 2 -150 2
      vertex 2 -150 20
    endloop
  endfacet
  facet normal 0 -1 0
    outer loop
      vertex 2.44929e-16 -148 2
      vertex 0.198063 -148 20
      vertex 2.44929e-16 -148 20
    endloop
  endfacet
  facet normal 0 -1 0
    outer loop
      vertex 0.151722 -148 2
      vertex 0.198063 -148 20
      vertex 2.44929e-16 -148 2
    endloop
  endfacet
  facet normal 0 -1 0
    outer loop
      vertex 0.151722 -148 2
      vertex 0.198063 -148 1.36947
      vertex 0.198063 -148 20
    endloop
  endfacet
  facet normal 0 -1 0
    outer loop
      vertex 0.198063 -148 1.36947
      vertex 0.151722 -148 2
      vertex 0.0501442 -148 1.55496
    endloop
  endfacet
  facet normal -1 0 0
    outer loop
      vertex 0.198063 -148.868 1.36947
      vertex 0.198063 -148 20
      vertex 0.198063 -148 1.36947
    endloop
  endfacet
  facet normal -1 -0 0
    outer loop
      vertex 0.198063 -148 20
      vertex 0.198063 -148.868 1.36947
      vertex 0.198063 -148.868 20
    endloop
  endfacet
  facet normal 0.222521 -0.974928 0
    outer loop
      vertex 1.55496 -149.95 2
      vertex 2 -149.848 20
      vertex 1.55496 -149.95 20
    endloop
  endfacet
  facet normal 0.222521 -0.974928 0
    outer loop
      vertex 2 -149.848 20
      vertex 1.55496 -149.95 2
      vertex 2 -149.848 2
    endloop
  endfacet
  facet normal -0.623491 -0.78183 2.0783e-08
    outer loop
      vertex 0.198063 -148.868 20
      vertex 1.36947 -149.802 2
      vertex 1.55496 -149.95 20
    endloop
  endfacet
  facet normal -0.623492 -0.78183 0
    outer loop
      vertex 0.198063 -148.868 1.36947
      vertex 1.36947 -149.802 2
      vertex 0.198063 -148.868 20
    endloop
  endfacet
  facet normal -0.623492 -0.78183 0
    outer loop
      vertex 0.198063 -148.868 1.36947
      vertex 1.36947 -149.802 1.13223
      vertex 1.36947 -149.802 2
    endloop
  endfacet
  facet normal -0.623491 -0.78183 5.5663e-07
    outer loop
      vertex 1.36947 -149.802 1.13223
      vertex 0.198063 -148.868 1.36947
      vertex 0.717776 -149.282 0.717776
    endloop
  endfacet
  facet normal -0.62349 -0.781831 -0
    outer loop
      vertex 1.55496 -149.95 20
      vertex 1.36947 -149.802 2
      vertex 1.55496 -149.95 2
    endloop
  endfacet
  facet normal -0 0 -1
    outer loop
      vertex 2.44847 -147 2
      vertex 2.19098 -147.574 2
      vertex 2.19098 -147 2
    endloop
  endfacet
  facet normal 0 0 0
    outer loop
      vertex 2.44847 -147 2
      vertex 2.19098 -147 2
      vertex 2 -147 2
    endloop
  endfacet
  facet normal 0 0 -1
    outer loop
      vertex 3 -147 2
      vertex 2.44847 -147 2
      vertex 3 -75 2
    endloop
  endfacet
  facet normal 0 0 -1
    outer loop
      vertex 2.35796 -147.642 2
      vertex 2.44847 -147 2
      vertex 3 -147 2
    endloop
  endfacet
  facet normal 0 0 -1
    outer loop
      vertex 2.19098 -147.574 2
      vertex 2.35796 -147.642 2
      vertex 2.19098 -147.588 2
    endloop
  endfacet
  facet normal 0 0 -1
    outer loop
      vertex 2.35796 -147.642 2
      vertex 2.19098 -147.574 2
      vertex 2.44847 -147 2
    endloop
  endfacet
  facet normal 0 0 -1
    outer loop
      vertex 2 -147 2
      vertex 3 -75 2
      vertex 2.44847 -147 2
    endloop
  endfacet
  facet normal -0 0 -1
    outer loop
      vertex 3 -75 2
      vertex 2 -147 2
      vertex 2 -75 2
    endloop
  endfacet
  facet normal -0 0 1
    outer loop
      vertex 2 -75 3
      vertex 2.14935 -147 3
      vertex 2.14935 -75 3
    endloop
  endfacet
  facet normal 0 0 1
    outer loop
      vertex 2.14935 -147 3
      vertex 2 -75 3
      vertex 2 -147 3
    endloop
  endfacet
  facet normal 0 0 0
    outer loop
      vertex 2 -75 3
      vertex 2 -148 3
      vertex 2 -147 3
    endloop
  endfacet
  facet normal 1 0 0
    outer loop
      vertex 3 -75 2.19098
      vertex 3 -147 2.14935
      vertex 3 -75 2
    endloop
  endfacet
  facet normal 1 0 -0
    outer loop
      vertex 3 -147 2.14935
      vertex 3 -75 2.19098
      vertex 3 -147.128 2.19098
    endloop
  endfacet
  facet normal 1 0 0
    outer loop
      vertex 3 -75 2
      vertex 3 -147 2.14935
      vertex 3 -147 2
    endloop
  endfacet
  facet normal -1 0 0
    outer loop
      vertex 2 -147 2.14935
      vertex 2 -75 2
      vertex 2 -147 2
    endloop
  endfacet
  facet normal -1 0 0
    outer loop
      vertex 2 -75 2
      vertex 2 -147 2.14935
      vertex 2 -75 3
    endloop
  endfacet
  facet normal -1 0 0
    outer loop
      vertex 2 -147.809 3
      vertex 2 -147 2.14935
      vertex 2 -147.809 2.41222
    endloop
  endfacet
  facet normal -1 0 0
    outer loop
      vertex 2 -147 2.14935
      vertex 2 -147.809 3
      vertex 2 -75 3
    endloop
  endfacet
  facet normal 0 0 0
    outer loop
      vertex 2 -75 3
      vertex 2 -147.809 3
      vertex 2 -148 3
    endloop
  endfacet
  facet normal -0 0 1
    outer loop
      vertex 2.41222 -75 2.19098
      vertex 3 -147.128 2.19098
      vertex 3 -75 2.19098
    endloop
  endfacet
  facet normal 0 0 1
    outer loop
      vertex 3 -147.128 2.19098
      vertex 2.41222 -75 2.19098
      vertex 2.41222 -147.128 2.19098
    endloop
  endfacet
  facet normal 0.951056 -0 0.309018
    outer loop
      vertex 2.14935 -147 3
      vertex 2.41222 -75 2.19098
      vertex 2.14935 -75 3
    endloop
  endfacet
  facet normal 0.951056 1.69557e-09 0.309018
    outer loop
      vertex 2.19098 -147 2.87186
      vertex 2.41222 -75 2.19098
      vertex 2.14935 -147 3
    endloop
  endfacet
  facet normal 0.951056 0 0.309018
    outer loop
      vertex 2.19098 -147 2.87186
      vertex 2.41222 -147.128 2.19098
      vertex 2.41222 -75 2.19098
    endloop
  endfacet
  facet normal 0.951056 0 0.309018
    outer loop
      vertex 2.35796 -147.642 2.35796
      vertex 2.19098 -147 2.87186
      vertex 2.19098 -147.588 2.87186
    endloop
  endfacet
  facet normal 0.951056 3.3492e-08 0.309018
    outer loop
      vertex 2.19098 -147 2.87186
      vertex 2.35796 -147.642 2.35796
      vertex 2.41222 -147.128 2.19098
    endloop
  endfacet
  facet normal -1 0 0
    outer loop
      vertex 2 -148 3
      vertex 2 -147 20
      vertex 2 -147 3
    endloop
  endfacet
  facet normal -1 -0 0
    outer loop
      vertex 2 -147 20
      vertex 2 -148 3
      vertex 2 -148 20
    endloop
  endfacet
  facet normal 0 0 1
    outer loop
      vertex 2.19098 -147 20
      vertex 2 -147 20
      vertex 2.19098 -147.588 20
    endloop
  endfacet
  facet normal 0 0 1
    outer loop
      vertex 2.19098 -147.588 20
      vertex 3 -148 20
      vertex 3 -147.851 20
    endloop
  endfacet
  facet normal 0 0 1
    outer loop
      vertex 2.19098 -147.588 20
      vertex 2 -148 20
      vertex 3 -148 20
    endloop
  endfacet
  facet normal 0 0 1
    outer loop
      vertex 2 -148 20
      vertex 2.19098 -147.588 20
      vertex 2 -147 20
    endloop
  endfacet
  facet normal 1 -0 0
    outer loop
      vertex 3 -148 20
      vertex 3 -147.851 3
      vertex 3 -147.851 20
    endloop
  endfacet
  facet normal 1 0 0
    outer loop
      vertex 3 -147.851 3
      vertex 3 -148 20
      vertex 3 -148 3
    endloop
  endfacet
  facet normal 0 1 0
    outer loop
      vertex 2.19098 -147 20
      vertex 2.14935 -147 3
      vertex 2 -147 20
    endloop
  endfacet
  facet normal -0 1 0
    outer loop
      vertex 2.14935 -147 3
      vertex 2.19098 -147 20
      vertex 2.19098 -147 2.87186
    endloop
  endfacet
  facet normal 0 1 0
    outer loop
      vertex 2 -147 20
      vertex 2.14935 -147 3
      vertex 2 -147 3
    endloop
  endfacet
  facet normal 1 -0 0
    outer loop
      vertex 2.19098 -147.588 20
      vertex 2.19098 -147 2.87186
      vertex 2.19098 -147 20
    endloop
  endfacet
  facet normal 1 0 0
    outer loop
      vertex 2.19098 -147 2.87186
      vertex 2.19098 -147.588 20
      vertex 2.19098 -147.588 2.87186
    endloop
  endfacet
  facet normal 0 0 0
    outer loop
      vertex 2.19098 -147.588 2
      vertex 2.19098 -147 2
      vertex 2.19098 -147.574 2
    endloop
  endfacet
  facet normal 0.30896 0.951075 0
    outer loop
      vertex 2.87186 -147.809 3
      vertex 3 -147.851 20
      vertex 3 -147.851 3
    endloop
  endfacet
  facet normal 0.309015 0.951057 -4.53687e-07
    outer loop
      vertex 3 -147.851 20
      vertex 2.87186 -147.809 3
      vertex 2.19098 -147.588 20
    endloop
  endfacet
  facet normal 0.309025 0.951054 0
    outer loop
      vertex 2.87186 -147.809 3
      vertex 2.19098 -147.588 2.87186
      vertex 2.19098 -147.588 20
    endloop
  endfacet
  facet normal 0.309017 0.951056 0
    outer loop
      vertex 2.35796 -147.642 2.35796
      vertex 2.87186 -147.809 3
      vertex 2.87186 -147.809 2.41222
    endloop
  endfacet
  facet normal 0.309026 0.951053 -7.91432e-06
    outer loop
      vertex 2.87186 -147.809 3
      vertex 2.35796 -147.642 2.35796
      vertex 2.19098 -147.588 2.87186
    endloop
  endfacet
  facet normal 0 -0.587785 0.809017
    outer loop
      vertex 0 -23.5734 22.5365
      vertex 2 -25 21.5
      vertex 2 -23.5734 22.5365
    endloop
  endfacet
  facet normal 0 -0.587785 0.809017
    outer loop
      vertex 2 -25 21.5
      vertex 0 -23.5734 22.5365
      vertex 0 -25 21.5
    endloop
  endfacet
  facet normal 0 0 -1
    outer loop
      vertex 0 -25.8817 24.2135
      vertex 2 -24.1183 24.2135
      vertex 2 -25.8817 24.2135
    endloop
  endfacet
  facet normal -0 0 -1
    outer loop
      vertex 2 -24.1183 24.2135
      vertex 0 -25.8817 24.2135
      vertex 0 -24.1183 24.2135
    endloop
  endfacet
  facet normal 0 -0.951056 -0.309017
    outer loop
      vertex 0 -23.5734 22.5365
      vertex 2 -24.1183 24.2135
      vertex 0 -24.1183 24.2135
    endloop
  endfacet
  facet normal 0 -0.951056 -0.309017
    outer loop
      vertex 2 -24.1183 24.2135
      vertex 0 -23.5734 22.5365
      vertex 2 -23.5734 22.5365
    endloop
  endfacet
  facet normal -0 0.587785 0.809017
    outer loop
      vertex 0 -25 21.5
      vertex 2 -26.4266 22.5365
      vertex 2 -25 21.5
    endloop
  endfacet
  facet normal 0 0.587785 0.809017
    outer loop
      vertex 2 -26.4266 22.5365
      vertex 0 -25 21.5
      vertex 0 -26.4266 22.5365
    endloop
  endfacet
  facet normal 0 0.951056 -0.309017
    outer loop
      vertex 2 -26.4266 22.5365
      vertex 0 -25.8817 24.2135
      vertex 2 -25.8817 24.2135
    endloop
  endfacet
  facet normal 0 0.951056 -0.309017
    outer loop
      vertex 0 -25.8817 24.2135
      vertex 2 -26.4266 22.5365
      vertex 0 -26.4266 22.5365
    endloop
  endfacet
  facet normal 0 -0.587786 0.809017
    outer loop
      vertex 0 -73.5734 22.5365
      vertex 2 -75 21.5
      vertex 2 -73.5734 22.5365
    endloop
  endfacet
  facet normal 0 -0.587786 0.809017
    outer loop
      vertex 2 -75 21.5
      vertex 0 -73.5734 22.5365
      vertex 0 -75 21.5
    endloop
  endfacet
  facet normal 0 0 -1
    outer loop
      vertex 0 -75.8817 24.2135
      vertex 2 -74.1183 24.2135
      vertex 2 -75.8817 24.2135
    endloop
  endfacet
  facet normal -0 0 -1
    outer loop
      vertex 2 -74.1183 24.2135
      vertex 0 -75.8817 24.2135
      vertex 0 -74.1183 24.2135
    endloop
  endfacet
  facet normal 0 -0.951056 -0.309017
    outer loop
      vertex 0 -73.5734 22.5365
      vertex 2 -74.1183 24.2135
      vertex 0 -74.1183 24.2135
    endloop
  endfacet
  facet normal 0 -0.951056 -0.309017
    outer loop
      vertex 2 -74.1183 24.2135
      vertex 0 -73.5734 22.5365
      vertex 2 -73.5734 22.5365
    endloop
  endfacet
  facet normal -0 0.587786 0.809017
    outer loop
      vertex 0 -75 21.5
      vertex 2 -76.4266 22.5365
      vertex 2 -75 21.5
    endloop
  endfacet
  facet normal 0 0.587786 0.809017
    outer loop
      vertex 2 -76.4266 22.5365
      vertex 0 -75 21.5
      vertex 0 -76.4266 22.5365
    endloop
  endfacet
  facet normal 0 0.951056 -0.309017
    outer loop
      vertex 2 -76.4266 22.5365
      vertex 0 -75.8817 24.2135
      vertex 2 -75.8817 24.2135
    endloop
  endfacet
  facet normal 0 0.951056 -0.309017
    outer loop
      vertex 0 -75.8817 24.2135
      vertex 2 -76.4266 22.5365
      vertex 0 -76.4266 22.5365
    endloop
  endfacet
  facet normal 0 -0.587786 0.809017
    outer loop
      vertex 0 -123.573 22.5365
      vertex 2 -125 21.5
      vertex 2 -123.573 22.5365
    endloop
  endfacet
  facet normal 0 -0.587786 0.809017
    outer loop
      vertex 2 -125 21.5
      vertex 0 -123.573 22.5365
      vertex 0 -125 21.5
    endloop
  endfacet
  facet normal 0 0 -1
    outer loop
      vertex 0 -125.882 24.2135
      vertex 2 -124.118 24.2135
      vertex 2 -125.882 24.2135
    endloop
  endfacet
  facet normal -0 0 -1
    outer loop
      vertex 2 -124.118 24.2135
      vertex 0 -125.882 24.2135
      vertex 0 -124.118 24.2135
    endloop
  endfacet
  facet normal 0 -0.951056 -0.309017
    outer loop
      vertex 0 -123.573 22.5365
      vertex 2 -124.118 24.2135
      vertex 0 -124.118 24.2135
    endloop
  endfacet
  facet normal 0 -0.951056 -0.309017
    outer loop
      vertex 2 -124.118 24.2135
      vertex 0 -123.573 22.5365
      vertex 2 -123.573 22.5365
    endloop
  endfacet
  facet normal -0 0.587786 0.809017
    outer loop
      vertex 0 -125 21.5
      vertex 2 -126.427 22.5365
      vertex 2 -125 21.5
    endloop
  endfacet
  facet normal 0 0.587786 0.809017
    outer loop
      vertex 2 -126.427 22.5365
      vertex 0 -125 21.5
      vertex 0 -126.427 22.5365
    endloop
  endfacet
  facet normal 0 0.951056 -0.309017
    outer loop
      vertex 2 -126.427 22.5365
      vertex 0 -125.882 24.2135
      vertex 2 -125.882 24.2135
    endloop
  endfacet
  facet normal 0 0.951056 -0.309017
    outer loop
      vertex 0 -125.882 24.2135
      vertex 2 -126.427 22.5365
      vertex 0 -126.427 22.5365
    endloop
  endfacet
  facet normal -0 0 1
    outer loop
      vertex 0 -15 30
      vertex 2 -135 30
      vertex 2 -15 30
    endloop
  endfacet
  facet normal 0 0 1
    outer loop
      vertex 2 -135 30
      vertex 0 -15 30
      vertex 0 -135 30
    endloop
  endfacet
  facet normal 0 1 -0
    outer loop
      vertex 2 -15 20
      vertex 0 -15 30
      vertex 2 -15 30
    endloop
  endfacet
  facet normal 0 1 0
    outer loop
      vertex 0 -15 30
      vertex 2 -15 20
      vertex 0 -15 20
    endloop
  endfacet
  facet normal 0 0 -1
    outer loop
      vertex 0 -135 20
      vertex 9.18485e-15 -75 20
      vertex 1.83697e-15 -135 20
    endloop
  endfacet
  facet normal -0 0 -1
    outer loop
      vertex 9.18485e-15 -75 20
      vertex 0 -135 20
      vertex 0 -75 20
    endloop
  endfacet
  facet normal 0 0 0
    outer loop
      vertex 0 -75 20
      vertex 2 -75 20
      vertex 9.18485e-15 -75 20
    endloop
  endfacet
  facet normal 0 -1 0
    outer loop
      vertex 1.83697e-15 -135 20
      vertex 0 -135 30
      vertex 0 -135 20
    endloop
  endfacet
  facet normal 0 -1 0
    outer loop
      vertex 0 -135 30
      vertex 1.83697e-15 -135 20
      vertex 2 -135 30
    endloop
  endfacet
  facet normal 0 -1 -0
    outer loop
      vertex 2 -135 30
      vertex 1.83697e-15 -135 20
      vertex 2 -135 20
    endloop
  endfacet
endsolid OpenSCAD_Model
